<?xml version="1.0" encoding="UTF-8"?>
<svg xmlns="http://www.w3.org/2000/svg" viewBox="0 0 324.77 471.83">
  <defs>
    <style>
      .cls-1 {
        fill: #71af2e;
      }

      .cls-2 {
        fill: #a03b14;
      }

      .cls-3 {
        fill: #fff;
      }

      .cls-4 {
        fill: #fcd9c8;
      }

      .cls-5 {
        fill: #fab72d;
      }

      .cls-6 {
        fill: #c57ede;
        opacity: .8;
      }

      .cls-6, .cls-7, .cls-8 {
        mix-blend-mode: multiply;
      }

      .cls-9 {
        isolation: isolate;
      }

      .cls-10 {
        fill: #f5610b;
      }

      .cls-11, .cls-12, .cls-13 {
        fill: #de62ae;
      }

      .cls-7 {
        fill: #d8c1e0;
      }

      .cls-14 {
        fill: #0e2244;
      }

      .cls-12 {
        mix-blend-mode: color;
      }

      .cls-13 {
        opacity: .35;
      }

      .cls-8 {
        fill: #b8bce6;
      }

      .cls-15 {
        fill: #34bbda;
      }
    </style>
  </defs>
  <g class="cls-9">
    <g id="Layer_1" data-name="Layer 1">
      <g>
        <path class="cls-3" d="M89.98,440.9c-22,0-44.96-3.32-51.04-9.37-3.42-3.36-5.15-8.37-4.51-13.09.22-1.64.71-3.17,1.45-4.56-3.36-7.54-3.49-15.8-.25-23.08,2.94-6.61,8.43-11.68,15.42-14.39,1.61-6.78,5.85-11.66,10.66-13.98.36-2.79.74-5.68,1.13-8.63,1.56-11.83,3.33-25.24,4.37-36.62,1.38-15.02,23.94-26.52,42.53-35.79-.66-1.85-1.12-3.79-1.37-5.82-.39.02-.77.03-1.14.02-.03,0-.06,0-.09,0-2.34-.1-4.64-.38-6.83-.82-1.58-.32-3.12-.73-4.58-1.22-.77-.26-1.53-.54-2.27-.85-5.58-2.32-10.02-6.03-12.81-10.75-.67-1.12-1.24-2.3-1.73-3.51-.2-.03-.4-.07-.6-.11-.44-.09-.88-.2-1.31-.33-3.83,1.51-7.37,4.29-10.56,6.78-5.3,4.15-12.55,9.83-19.85,4.54-.04-.03-.07-.05-.11-.08-3.51-2.65-5.65-6.24-6.19-10.37-.12-.9-.16-1.79-.13-2.66-1.79.31-3.51.53-5.17.64-11.03.72-15.26-4.24-16.86-8.54-1.16-3.06-1.11-7.07,1.34-11.01-2.2-2.58-3.26-5.5-2.98-8.46.52-5.41,4.89-9.21,13-11.28,16.63-4.63,31.88-.12,38.4,1.81l.28.08c1.98.6,4.78,1.62,7.81,2.76.37-.1.76-.19,1.18-.27,3.02-.52,7.7,0,11.63,1.34,4.74-2.98,12.55-6.31,20.62-2.94,3.84,1.6,7.55,4.44,10.83,6.95,1.26.97,2.96,2.27,4.25,3.11,1.47-1.94,3.44-5.62,4.73-8.02.83-1.55,1.64-3.06,2.46-4.48-2.37-1.59-4.77-1.86-5.89-1.99-6.75-.78-6.83-6.81-6.83-7.07,0-1.07,0-3.07,3.67-6.73-4.8-2.77-9.54-6.46-14.02-10.95-1.04.19-2.09.31-3.16.34-5.53.16-10.78-1.83-14.81-5.62-4.02-3.79-6.33-8.92-6.5-14.44-.03-1.04.03-2.12.18-3.29,0-.01,0-.02,0-.04-3.39-1.78-5.7-4.51-7.14-7.46-4.36-.12-7.67-2.44-9.55-5.15-2.81-4.04-3.39-9.77-2.06-14.84-1.79-1.47-2.98-3.26-3.57-5.37-.37-1.34-.55-3.03-.12-4.96-6.9-5.31-7.83-11.52-7.63-15.2.27-5.11,2.99-10.09,7.24-13.88-.59-1.55-.64-3.05-.45-4.36.27-1.85,1.06-3.42,2.18-4.71-2.14-3.7-2.2-7.55-.84-10.56,1.42-3.14,4.45-5.62,8.83-6.3.06-3.21.84-6.32,2.27-9.07-3.38-2.46-6.12-3.87-7.63-4.52-17.17,5.55-22.92-2.19-24.83-7.39-1.85-5.04-.48-10.04,3.56-13.06,5.99-4.47,15.94-3.14,24.96,3.27,6.87,2.93,13.49,6.89,19.72,11.8.79-.06,1.6-.08,2.43-.06,2.61-8.6,9.44-15.74,18.83-19.18,9.28-3.4,19.01-2.52,26.75,2.05.67-.65,1.35-1.19,2.03-1.63-2.89-1.47-6.77-3.83-9.45-7.3-.01-.01-.02-.03-.03-.04h0c-3.37-4.39-4.05-9.52-1.91-14.43,2.14-4.92,6.58-7.6,11.58-7,7.42.9,13.7,8.73,15.81,19.59.73,1.69,1.4,3.42,2.05,5.28.07.19.14.37.19.56.68,1.99,1.3,4.03,1.84,6.1,10.52-3.71,19.91-.61,24.8,5.62,2.39,3.04,3.44,6.57,3.23,10.04,10.93,3.12,16.58,10.14,19.19,14.67,3.34,5.78,4.69,12.55,3.9,18.43,2.07,1.86,3.03,3.93,3.46,5.65.48,1.93.4,3.74.03,5.34,2.02,1.95,4.21,4.56,5.72,7.7,2.29,4.76,1.79,10.03-1.34,14.1-.53.69-1.12,1.32-1.77,1.89,2,5.89,1.78,12.06-.79,17.52-1.26,2.68-3,4.97-5.07,6.76,3.12,6.76.59,11.33-.99,13.3-2.48,3.09-6.51,4.61-10.87,4.47-1.55,3.88-4.21,5.82-5.69,6.65-2.04,1.14-4.29,1.66-6.61,1.58-2.16,4.59-5.17,7.29-7.7,8.86-1.03.64-2.11,1.16-3.22,1.58,5.44.84,11.11,2.62,15.22,6.17.51.44.95.95,1.31,1.51,16.06.45,33.83,4.33,43.83,12.37,5.92,4.76,7.56,9.85,7.9,13.29.13,1.34.2,2.7.19,4.04-.02,7.76-2.33,15.54-6.5,21.91-2.09,3.19-4.59,5.97-7.43,8.27-.97.78-1.98,1.51-3.02,2.17-1.59,1.01-3.26,1.87-4.97,2.56-.5.2-1.01.39-1.53.57,2.08,3.02,3.35,6.86,2.85,11.44.91.69,1.98,1.05,3.51,1.57,3.26,1.11,8.71,2.96,11.31,10.01,1.49,3.77.61,8.5-2.3,12.12-1.94,2.42-6.01,5.91-13.49,6.22-.56,1.11-1.28,2.12-2.16,3.01-1.85,1.89-5.23,4.05-10.72,3.62-10.42-.8-25.03-8.5-30.5-26.08-.03.05-.05.1-.08.15l-.17.3s-.05.09-.06.1c-.23.4-.45.8-.69,1.19-.09.14-.19.32-.3.48-.24.38-.47.75-.72,1.11l-.28.42c-.37.54-.73,1.02-1.09,1.49-.03.03-.05.06-.08.1-.49.62-.97,1.22-1.46,1.8l-.35.42c-.52.61-1.03,1.19-1.54,1.74l-.21.22c-.45.48-.93.97-1.4,1.44l-.33.33c-.56.54-1.08,1.03-1.6,1.49-.06.05-.16.14-.26.23-.51.44-.97.83-1.43,1.2l-.34.27c-.55.44-1.08.83-1.61,1.21l-.36.25c-.52.37-.98.67-1.44.97l-.31.2c-.56.35-1.09.67-1.62.96l-.5.28c-.46.25-.92.49-1.37.72l-.39.19c-.51.24-1,.46-1.49.67-.18.08-.38.16-.59.24-.47.19-.94.37-1.4.54l-.55.19c-.26.09-.48.16-.7.23-.05.42-.1.85-.14,1.27l-.09.89s-.01.12-.01.13l-.38,4.81c3.18.25,7.23.69,11.87,1.46,2.81.47,5.63,1.03,8.37,1.67,9.51,2.22,18.32,5.38,26.19,9.4,8.16,4.17,16.15,10.21,23.77,17.96.03.03.09.09.15.16,2.11,2.15,4.21,4.47,6.26,6.9.82.97,1.62,1.95,2.4,2.93,1.75,2.2,3.44,4.48,5.05,6.8,5.36,3.75,9.94,7.63,13.63,11.54,1.04,1.1,2.02,2.21,2.92,3.32.3.37.59.73.87,1.1.46.59.88,1.17,1.29,1.75.37.52.73,1.04,1.06,1.56.23.35.46.72.68,1.08.57.94,1.11,1.92,1.6,2.91.14.29.28.57.41.86,1.76,3.79,2.7,7.55,2.79,11.18v.02c0,.35.01.7,0,1.05-.05,2.71-.58,5.29-1.58,7.67-.13.3-.26.59-.39.88-.74,1.56-1.67,3-2.79,4.29-.66,1.32-1.66,2.49-2.96,3.38-4.3,2.98-10.25,5.6-17.68,7.78-.07.02-.14.04-.21.06-1.02.27-2.05.3-3.04.12-.44-.08-.88-.2-1.31-.37,0,0,0,0,0,0,0,0,0,0,0,0,0,0,0,0,0,0h0c-.09-.03-.17-.07-.26-.11-.06-.03-1.52-.63-3.79-1.15-.79,2.45-2.85,4.27-5.39,4.75-13.73,2.55-30.06,3.94-44.79,3.77-16.99-.18-24.37-2.24-27.86-4.06-.47,1.21-1.07,2.34-1.78,3.39-.27,2.14-1.3,4.11-3.03,5.63-4.1,3.68-9.79,6.67-16.93,8.89-1.22.38-2.52.42-3.76.11-.03,0-2.76-.66-6.09-.95-.95,2.22-3,3.82-5.44,4.17-7.18,1.03-15.55,1.52-24.05,1.52ZM48.68,421.47c4.79,3,33.43,7.38,59.14,4.58.09-.22.17-.43.26-.64,1.03-2.44,3.35-4.08,5.99-4.25,5.03-.33,10.05.43,12.79.96,3.38-1.17,6.16-2.52,8.31-4.02.25-1.58,1.04-3.07,2.3-4.18.09-.08.16-.16.22-.24.96-1.39,1.76-6.19-2.1-14.45-.5-1.06-1.06-2.15-1.67-3.24-1.31-2.33-2.89-4.73-4.7-7.13-1.95-2.6-4.2-5.24-6.67-7.85-.74-.78-1.29-1.73-1.61-2.76l-1.16-3.77c-.43-1.39-.86-2.77-1.29-4.14-2.36-7.53-5.04-15.53-8.59-22.95-.21-.43-.42-.86-.63-1.29-.39-.79-.79-1.57-1.2-2.35-1.41-2.64-2.93-5.17-4.54-7.53-2.44-3.58-5.09-6.84-8.1-9.95-2.02-2.09-2.54-5.21-1.31-7.84.16-.33.33-.67.53-1.02.08-.13.15-.26.22-.38.12-.21.22-.37.33-.54.11-.18.21-.32.31-.47,0-.01.06-.09.07-.1.09-.14.17-.25.25-.36.15-.21.3-.41.46-.61.08-.11.16-.21.24-.31.16-.2.35-.43.54-.67l.13-.16c.23-.27.45-.52.68-.77l.07-.08c.25-.28.49-.54.75-.8.02-.02.04-.05.07-.07,5.4-5.58,14.97-12.21,26.93-18.65,2.26-1.22,5.01-1.1,7.16.31,2.15,1.41,3.35,3.88,3.13,6.44-.23,2.65-.5,5.08-.77,7.42-.73,6.45-1.31,11.54-.03,14.64,1.23,3.04,5.15,5.75,10.11,9.18,5.57,3.85,12.5,8.63,19.22,16.28,1.04,1.19,2.08,2.45,3.08,3.75,1.26,1.64,1.73,3.76,1.29,5.78s-1.76,3.74-3.6,4.7c-.38.2-.66.43-.71.59-.1.32-.04,1.36.82,3.1.3.51.54,1.07.7,1.66.84,3.03-.44,6.25-3.14,7.87-5.79,3.47-7.91,10.27-5.26,16.93l.05.13c.11.28.25.62.42.95l.25.5c.11.21.21.42.33.63.24.43.47.8.71,1.16,1.08,1.63,1.44,3.64.97,5.54-.41,1.68-1.43,3.14-2.84,4.11.03.23.13.53.3.78,5.17,2.49,32.86,3.77,59.36-.56.46-1.06.95-2.02,1.46-2.89,1.33-2.26,3.8-3.59,6.44-3.43,3.71.22,6.92.91,9.28,1.58.81-.09,1.63-.04,2.41.15,3.83-1.28,7.04-2.69,9.43-4.15.31-.51.69-.98,1.13-1.4.45-.43.82-.94,1.09-1.52.04-.09.08-.17.11-.25.31-.75.48-1.62.5-2.57,0-.15,0-.29,0-.45-.05-1.7-.55-3.6-1.5-5.64-.08-.17-.17-.35-.26-.53-.32-.65-.66-1.26-1.03-1.87-.15-.25-.3-.49-.46-.74-.24-.37-.48-.73-.74-1.09-.3-.42-.6-.84-.93-1.26-.21-.27-.42-.54-.64-.81-.68-.84-1.44-1.7-2.24-2.55-3.25-3.44-7.43-6.92-12.44-10.35-.72-.49-1.35-1.12-1.84-1.84-1.63-2.4-3.37-4.77-5.18-7.05-.7-.88-1.42-1.75-2.14-2.62-1.83-2.17-3.71-4.25-5.6-6.17-.03-.03-.06-.07-.09-.1l.05.05c-6.6-6.72-13.38-11.87-20.2-15.36-6.85-3.5-14.58-6.27-22.99-8.23-2.46-.57-4.98-1.08-7.51-1.5-8.88-1.49-15.34-1.58-16.55-1.58h-.22c-1.86-.02-3.69-.73-5.02-2.06-1.33-1.33-2.07-3.14-2.05-5.02,0,0,0-.33.02-.93l.02-.84s0-.1,0-.11v-.11s0-.1,0-.12l.68-10.73.1-.99s.01-.1.01-.1c.1-.98.22-1.96.35-2.93,0-.03,0-.05.01-.08l.16-1.12s.01-.09.02-.1c.03-.16.07-.38.1-.54l.53-2.3c.64-2.81,2.95-4.95,5.81-5.37.02,0,.05,0,.08-.01l.29-.06c.15-.03.33-.06.5-.1l.45-.09c.27-.06.55-.14.83-.21l.16-.04c.09-.03.18-.06.26-.08.22-.07.45-.14.68-.21l.39-.13c.26-.09.54-.2.83-.32l.35-.14c.33-.14.63-.28.94-.42l.25-.12c.27-.13.56-.29.85-.45l.31-.17c.36-.2.7-.4,1.04-.62l.19-.13c.33-.21.63-.42.93-.62l.27-.19c.37-.27.73-.54,1.09-.82l.24-.2c.33-.26.65-.53.96-.81l.16-.13s.07-.06.08-.07c.37-.33.75-.68,1.12-1.04l.26-.26c.35-.35.7-.7,1.05-1.07.03-.03.12-.13.15-.16.39-.42.78-.86,1.17-1.31l.28-.33c.4-.48.8-.96,1.19-1.47.02-.02.03-.04.05-.06.21-.27.41-.55.6-.83l.17-.25c.16-.24.31-.46.45-.69l.19-.31c.17-.28.31-.53.46-.79l.1-.18c.23-.41.41-.77.59-1.14.01-.02.02-.05.03-.06l.16-.35c.08-.18.17-.35.27-.52.06-.17.12-.33.19-.5,0-.02.01-.03.02-.05l.13-.3c.59-1.42,1.6-2.57,2.87-3.33.18-.29.65-1.18,1.04-3.1.02-.1.04-.2.07-.3.05-.2.09-.39.13-.56-.83-1.38-1.17-3.03-.91-4.68.3-1.91.54-3.92.72-5.98.25-2.97,2.36-5.46,5.25-6.19,2.89-.74,5.93.44,7.57,2.93,1.08,1.64,2.48,3,3.21,3.66,1.45,1.31,2.28,3.16,2.31,5.1.01,1,.17,2.09.48,3.24.21.8.28,1.64.2,2.47-.05.52-.07,1.02-.07,1.48.27,19.78,13.11,25.79,18.97,26.66,0-1.95.82-3.83,2.27-5.16,1.62-1.49,3.84-2.12,6-1.73,3.25.6,5.13.26,6.09-.15-.37-.16-.92-.35-1.8-.65-3.34-1.13-8.4-2.85-12.43-9.09-1.13-1.75-1.43-3.92-.8-5.91.29-.92,1.16-3.69-2.61-5.21-2.11-.68-3.56-2.26-4.26-4.37-.61-1.82-.43-3.75.39-5.36-.57-2.03-.2-4.24,1.06-5.98,1.44-2,3.83-3.11,6.3-2.88,1.01.09,2.03.08,3.01-.04.32-.04.64-.09.96-.15.96-.18,1.91-.46,2.83-.83.92-.37,1.83-.84,2.7-1.39.59-.37,1.16-.79,1.72-1.23,1.7-1.38,3.22-3.08,4.51-5.05,2.71-4.13,4.2-9.2,4.22-14.28,0-.88-.04-1.77-.12-2.65-.14-1.45-1.78-2.96-2.74-3.73-8.53-6.86-30.52-10.88-48.01-8.78-3.34.4-6.49-1.63-7.51-4.84-.39-1.25-.42-2.53-.14-3.73-3.76-.39-7.73-.35-10.74-.04-1.9.2-3.8-.39-5.25-1.62-1.46-1.23-2.35-3.01-2.46-4.91l-.24-4c-.1-1.62.37-3.22,1.32-4.53,1.73-2.39,3.54-5.21,5.39-8.39,1.64-2.81,5-4.12,8.1-3.17.78.24,2.32.5,3.8-.41,1.76-1.09,3.04-3.56,3.6-6.97.4-2.42,2.04-4.46,4.33-5.37,2.22-.88,4.73-.57,6.66.82.03-.47.03-1.08-.05-1.84-.26-2.63.98-5.18,3.2-6.6,1.9-1.21,4.23-1.42,6.29-.62-.11-.13-.23-.25-.36-.39-1.86-1.99-2.4-4.87-1.39-7.39,1.01-2.52,3.4-4.23,6.11-4.38.92-.05,2.32-.99,3.23-2.92.73-1.56,2.01-5.77-1.97-11.13-1.72-2.32-1.84-5.45-.31-7.89,1.27-2.02,3.46-3.23,5.79-3.28-1.5-2.44-4.16-4.5-5.15-5.14-1.79-1.16-3.09-2.97-3.3-5.09-.15-1.51.13-2.95.85-4.19-1.46-.76-2.61-2.03-3.24-3.57-.77-1.9-.67-4.03.28-5.85.96-1.86,1.12-6.8-1.6-11.51-2.29-3.96-7.18-8.77-17.52-9.23-2.87-.13-5.37-2-6.31-4.71-.94-2.72-.12-5.73,2.07-7.6.99-.84.82-1.06.45-1.53-1.41-1.8-6.85-3.69-14.68,1.93-1.98,1.42-4.56,1.71-6.8.76-2.25-.95-3.84-2.99-4.2-5.4-.07-.48-.15-.96-.23-1.43-.23-.09-.46-.19-.69-.3-.15.36-.31.85-.47,1.49-.63,2.55-2.64,4.53-5.2,5.13-2.56.6-5.24-.29-6.94-2.3-5.23-6.19-13.05-6.21-18.62-4.18-5.23,1.91-10.82,6.58-10.82,13.92,0,2.17-1,4.21-2.72,5.54-1.71,1.33-3.95,1.78-6.05,1.23-2.72-.71-5.09-.85-6.88-.42-.32.08-.64.13-.96.16-.22.18-.45.35-.69.51-2.61,1.7-2.51,6.05-.78,8.9,1.58,2.6,1.3,5.91-.69,8.21-1.04,1.21-2.43,1.99-3.92,2.29.75,1.37,1.04,2.99.75,4.61-.34,1.87-1.4,3.46-2.88,4.5.38.91.58,1.91.54,2.94-.09,2.95-2.03,5.52-4.83,6.43-4.15,1.35-7.07,4.6-7.19,6.79-.09,1.75,2.15,3.82,5.99,5.54,2.1.94,3.61,2.86,4.03,5.13.28,1.51.05,3.04-.62,4.38,2.16.81,3.8,2.64,4.34,4.92.61,2.55-.26,5.24-2.25,6.95-.51.53-.84,2.04-.83,3.28,2.24-1.24,4.98-1.28,7.14.09,2.15,1.36,3.39,3.66,3.24,6.19.07,3.62,2.57,3.75,3.64,3.81,2.89.15,5.39,2.07,6.29,4.82.07.2.14.4.22.6.76,1.95.6,4.14-.43,5.97-.42.74-.69,1.55-.8,2.4-.06.43-.08.78-.07,1.07.05,1.79.8,3.45,2.1,4.67,1.3,1.22,2.97,1.87,4.79,1.82.92-.03,1.82-.24,2.66-.64,2.8-1.33,6.14-.66,8.21,1.65,5.97,6.65,12.66,11.6,18.84,13.92.06.02.13.05.19.07,1.14.47,2.14.8,3.07,1.02,2.73.64,4.82,2.85,5.3,5.62.48,2.76-.74,5.55-3.09,7.07-.13.09-.27.17-.4.26,2.54,1.75,4.74,3.99,6.58,6.7,1.78,2.61,1.59,6.09-.46,8.49-1.19,1.39-2.88,4.55-4.38,7.34-4.13,7.71-8.4,15.67-15.88,16.09-4.85.28-9.07-2.95-13.95-6.68-2.6-1.99-5.54-4.24-7.71-5.14-2.69-1.12-7.06,1.01-9.98,3.47-2.55,2.15-6.25,2.19-8.84.15-.76-.38-2.35-.78-3.71-1-1.88,1.37-4.37,1.75-6.64.88-3.98-1.53-8.35-3.19-10.69-3.9l-.24-.07c-5.24-1.55-17.33-5.13-29.78-1.99,1.75,1.21,2.87,3.17,3,5.33.16,2.56-1.1,5-3.27,6.36-.26.16-.5.32-.71.47,4.46-.15,12.47-2.28,16.34-3.31,1.91-.51,3.95-.18,5.61.89,1.66,1.08,2.79,2.8,3.1,4.76.31,1.92-.22,3.92-1.41,5.45-1.28,1.64-2.54,4.16-2.65,5.77,1.13-.78,2.52-1.87,3.65-2.75,4.6-3.6,10.32-8.09,17.8-10,.33-.09.68-.15,1.02-.18,1.54-.16,3.1.19,4.43,1.02.09.01.35.03.83-.08l.29-.09c1.99-.62,4.14-.31,5.89.82,1.74,1.13,2.89,2.99,3.13,5.05l.05.49c.22,1.44.69,2.78,1.42,4.01,1.26,2.13,3.33,3.8,6.15,4.97.43.18.88.35,1.34.5.91.31,1.89.57,2.91.77,1.41.29,2.9.47,4.43.55.06-.01.12-.02.17-.04l.08-.02c.15-.05.27-.09.39-.14l.22-.08c.21-.09.45-.2.71-.32l.16-.08c.26-.13.54-.28.82-.44l.35-.21s.09-.05.11-.06c1.89-1.09,4.19-1.25,6.2-.41,2.01.83,3.53,2.55,4.09,4.65,0,.03.02.06.02.08,1.1,1.41,1.64,3.23,1.43,5.09-.49,4.32.33,7.71,2.51,10.38,1.34,1.64,1.86,3.8,1.43,5.87-.44,2.07-1.79,3.83-3.67,4.79-1.72.87-3.57,1.8-5.52,2.77-7.73,3.85-17.34,8.64-24.74,13.62-9.97,6.71-11.04,10.45-11.13,11.44-1.07,11.65-2.86,25.2-4.43,37.15-.6,4.59-1.19,9.03-1.71,13.16-.44,3.5-3.42,6.13-6.95,6.13h0c-.71.12-3.54,2.12-3.7,7.12-.1,3.22-2.38,5.96-5.53,6.63-4.94,1.06-8.64,3.84-10.42,7.83-1.83,4.1-1.42,8.98,1.12,13.39.22.38.42.72.64,1.05,1.08,1.63,1.44,3.64.97,5.54-.41,1.68-1.43,3.14-2.84,4.11.04.27.16.62.37.88ZM48.88,421.68s0,0,0,0c0,0,0,0,0,0ZM158.18,406.2s0,0,0,0c0,0,0,0,0,0ZM133.85,372.59c2.4,2.61,4.6,5.24,6.57,7.86.8,1.06,1.57,2.13,2.29,3.2.64-6.42,3.51-12.39,8.3-16.89-.81-3.55-.41-6.39.21-8.39.33-1.05.78-2.06,1.34-3-5.14-5.45-10.46-9.13-15.21-12.41-6.35-4.38-12.34-8.52-15.11-15.4-1.9-4.58-2.02-9.49-1.6-14.91-4.64,3.01-8.44,5.89-11.04,8.41,1.96,2.32,3.78,4.73,5.52,7.29,1.89,2.77,3.67,5.74,5.32,8.83.48.89.94,1.8,1.38,2.7.24.49.48.98.72,1.48,3.93,8.21,6.8,16.77,9.31,24.8.44,1.39.87,2.79,1.31,4.21l.69,2.24ZM174.61,265.53h-.01.01ZM120.88,264.63h0s0,0,0,0ZM107.71,261.61s.01,0,.02,0c0,0-.01,0-.02,0h0ZM172.43,260.45h0ZM172.43,260.43h0s0,0,0,0ZM172.43,260.41s0,0,0,.01c0,0,0,0,0-.01ZM203.24,254.82h0ZM205.81,250.59s0,0-.01,0c0,0,0,0,.01,0ZM84.86,236.61s0,0,0,0c0,0,0,0,0,0ZM125.94,231.22h0ZM207.13,113.93h0ZM140.69,21.29h0ZM179.33,244.72c-.67,0-1.35-.1-2.02-.3-2.87-.86-4.87-3.46-4.98-6.45-.15-4.17-.5-8.39-1.03-12.53,0,0,0-.01,0-.02,0-.01,0-.02,0-.04-.17-1.33-.36-2.65-.57-3.92,0-.05-.02-.09-.02-.13-.09-.56-.19-1.16-.3-1.74,0-.04-.01-.07-.02-.1-.2-1.13-.42-2.21-.64-3.22l-.04-.17c-.06-.29-.13-.6-.2-.9-.5-2.15.04-4.42,1.47-6.11,1.43-1.69,3.59-2.6,5.78-2.47,13.63.85,21.38,8.15,22.81,14.58h0c1.34,6.02-3.28,9.93-7.35,13.37-2.43,2.06-5.19,4.39-7.2,7.21-1.34,1.87-3.48,2.93-5.69,2.93ZM186.01,224.56h0Z"/>
        <g>
          <g>
            <path class="cls-1" d="M152.94,190.26c-.89,5.62-2.66,19.98-2.66,19.98l10.88-2.4-1.42-23.19-6.8,5.61Z"/>
            <path class="cls-14" d="M150.28,211.09c-.21,0-.42-.08-.57-.22-.2-.19-.31-.46-.27-.73.02-.14,1.79-14.44,2.67-20.01.03-.21.14-.39.3-.52l6.8-5.61c.25-.2.59-.25.88-.12.29.13.49.41.51.73l1.41,23.19c.03.42-.26.79-.67.88l-10.88,2.4c-.06.01-.12.02-.18.02ZM153.73,190.71c-.73,4.75-2.02,14.95-2.46,18.44l8.99-1.98-1.27-20.79-5.26,4.34Z"/>
          </g>
          <path class="cls-14" d="M151.43,202.93c5.31-3.33,8.63-13.08,8.63-13.08l-.57-4.65-6.49,6.33-1.57,11.41Z"/>
          <g>
            <g>
              <path class="cls-1" d="M89.4,234.9c-9.81-3.77-18.99-7.44-23.21-8.73-5.72-1.69-19.93-6.04-34.89-1.85-13.67,3.46-6.41,9.77-1.14,12.24-4.56,2.86-6.6,6.32-5.47,9.3,2.53,6.79,14.85,3.68,26.62.56,0,0-8.94,10.94-.6,17.24,5.71,4.14,13.77-9.81,26.64-13.12,3.81-.3,7.43-.15,10.79.3,2.37-3.77,5.04-10.14,1.25-15.95Z"/>
              <path class="cls-8" d="M28.13,235.47c4.08-8.14,14.94-4.49,14.94-4.49l-11.95,5.02-2.99-.53Z"/>
              <path class="cls-14" d="M30.16,237.42c-.12,0-.24-.03-.36-.08-3.5-1.64-7.48-4.69-7.18-7.9.24-2.57,3.09-4.57,8.47-5.93,14.97-4.19,29.08,0,35.1,1.79l.24.07c3.31,1,9.23,3.46,16.09,6.31,2.73,1.13,5.61,2.33,8.53,3.51.44.18.65.67.47,1.11-.18.43-.67.65-1.11.47-2.92-1.19-5.8-2.38-8.54-3.52-6.82-2.83-12.7-5.27-15.92-6.25l-.24-.07c-5.88-1.75-19.66-5.84-34.18-1.77-4.49,1.14-7.05,2.72-7.21,4.44-.21,2.17,3.07,4.73,6.2,6.2.43.2.61.71.41,1.13-.14.31-.45.49-.77.49Z"/>
              <path class="cls-14" d="M34.31,250.83c-2.36,0-4.56-.29-6.35-.97-2.07-.78-3.44-2.03-4.06-3.7-.62-1.69-.42-3.51.58-5.29,2.68-4.75,10.68-8.8,21.4-10.83.46-.08.91.22,1,.68.09.46-.22.91-.68,1-10.08,1.91-17.83,5.74-20.24,9.99-.76,1.34-.91,2.64-.46,3.86.44,1.18,1.47,2.09,3.06,2.69,5.57,2.11,16.9,0,22.92-3.24.41-.22.93-.07,1.15.35.22.41.07.93-.35,1.15-4.16,2.23-11.66,4.29-17.97,4.29Z"/>
              <path class="cls-14" d="M54.06,265.5c-1.17,0-2.41-.33-3.77-1.1-2.66-1.5-4.12-3.99-4.21-7.18-.16-5.58,3.89-12.15,9.85-15.98.4-.25.92-.14,1.18.26.25.4.14.92-.26,1.18-5.39,3.46-9.21,9.56-9.07,14.5.05,1.79.67,4.24,3.34,5.75,3.79,2.14,6.19.17,10.45-3.81,3.65-3.4,8.19-7.64,15.58-9.4.04-.01.09-.02.13-.02,3.6-.29,7.3-.18,10.98.3.47.06.79.49.73.96-.06.47-.49.79-.96.73-3.54-.47-7.09-.57-10.55-.3-6.91,1.66-11.25,5.71-14.75,8.97-2.9,2.71-5.51,5.14-8.68,5.14Z"/>
            </g>
            <path class="cls-15" d="M88.38,232.43c3.65-3.53,11.55-8.45,18.35-5.62,6.65,2.77,14.42,11.53,18.57,11.3,6.55-.37,12.48-21.45,17.76-22.82,3.88-.09-4.04,26.98-5.14,28.92-1.11,1.95-21.89,24.76-30.47,24.38-10.15-.45-21.28-4.84-23.11-16.83-1.5-9.81,4.04-19.34,4.04-19.34Z"/>
            <path class="cls-6" d="M128.37,247.1c-2.61.69-29.83,16.21-37.2-4.06l-7.08,5.68c.02,1.01.08,2.03.24,3.06,1.83,11.99,12.95,16.38,23.11,16.83,5.41.24,15.66-8.74,22.78-15.89-.49-3.45-1.1-5.8-1.86-5.61Z"/>
            <path class="cls-14" d="M87.71,231.91c.31-.29.63-.61.94-.88.3-.25.59-.51.89-.74.6-.48,1.23-.93,1.86-1.37,1.28-.86,2.64-1.61,4.06-2.24,2.82-1.25,6.06-1.95,9.25-1.35.39.09.8.14,1.18.28l1.15.4c.71.33,1.43.65,2.1,1.04,1.35.75,2.62,1.6,3.85,2.49,2.46,1.76,4.77,3.67,7.18,5.36,1.2.84,2.44,1.64,3.69,2.11.63.19,1.21.34,1.75.22.56-.11,1.13-.41,1.67-.8,1.07-.83,2-1.95,2.85-3.14.85-1.19,1.65-2.44,2.38-3.72,1.5-2.57,2.83-5.24,4.31-7.87.74-1.31,1.51-2.62,2.41-3.87.44-.63.94-1.24,1.5-1.81.57-.56,1.23-1.13,2.16-1.39.05-.01.11-.02.16-.02.29,0,.63.09.87.28.24.18.39.41.49.6.2.4.27.77.33,1.12.09.7.09,1.36.07,2.02-.06,1.31-.22,2.58-.42,3.84-.4,2.52-.93,5.01-1.52,7.47-.59,2.47-1.23,4.92-1.92,7.36-.35,1.22-.71,2.44-1.09,3.65l-.59,1.82-.32.91c-.13.31-.21.6-.44.99-.43.64-.82,1.07-1.24,1.58l-1.26,1.44c-.85.95-1.71,1.88-2.58,2.8-1.75,1.84-3.53,3.64-5.36,5.4-3.67,3.5-7.47,6.89-11.7,9.8-2.13,1.42-4.35,2.79-7,3.49-.34.06-.68.13-1.03.18-.35.01-.74.04-1.06.02l-1.93-.14-1.92-.23-1.91-.33c-2.53-.51-5.02-1.31-7.36-2.48-2.33-1.17-4.5-2.73-6.25-4.72-1.76-1.98-3.04-4.37-3.76-6.91-.72-2.53-.98-5.17-.83-7.77.14-2.6.63-5.16,1.38-7.63.36-1.24.81-2.45,1.29-3.65.25-.6.5-1.19.78-1.77l.43-.87.22-.43.12-.22.06-.12.13-.21ZM89.05,232.96s.01,0,.01,0l-.05.09-.11.2-.21.41-.41.83c-.26.56-.51,1.12-.75,1.69-.46,1.14-.89,2.3-1.24,3.49-.73,2.36-1.19,4.79-1.33,7.24-.3,4.86.91,9.89,4.15,13.51,3.2,3.65,7.91,5.74,12.71,6.72l1.82.32,1.84.23,1.85.13c.31.02.55-.02.83-.02l.84-.14c2.26-.58,4.44-1.87,6.49-3.24,4.11-2.8,7.89-6.15,11.53-9.6,1.82-1.73,3.59-3.52,5.32-5.33.86-.91,1.72-1.83,2.56-2.76l1.24-1.41c.39-.46.83-.98,1.11-1.39.1-.15.22-.47.33-.74l.31-.87.58-1.78c.38-1.2.74-2.4,1.08-3.61.69-2.42,1.34-4.85,1.93-7.29.58-2.44,1.12-4.9,1.52-7.36.19-1.23.36-2.47.41-3.68.03-.61.02-1.21-.05-1.76-.04-.27-.1-.53-.19-.69-.04-.09-.08-.12-.09-.13,0,0,0,0-.01,0l.16-.02c-.52.14-1.07.55-1.55,1.04-.49.49-.94,1.04-1.36,1.63-.85,1.18-1.6,2.45-2.34,3.74-1.46,2.59-2.83,5.25-4.3,7.88-1.51,2.6-2.94,5.31-5.44,7.44-.65.5-1.41.96-2.32,1.16-.23.03-.46.1-.69.09l-.69-.05c-.46-.05-.84-.2-1.26-.31-1.55-.58-2.84-1.44-4.09-2.31-2.49-1.74-4.8-3.65-7.21-5.36-1.2-.86-2.42-1.68-3.69-2.37-.63-.37-1.28-.65-1.92-.95l-.98-.33c-.32-.12-.67-.15-1.01-.23-2.72-.51-5.61.1-8.23,1.25-1.32.57-2.59,1.27-3.8,2.07-.6.41-1.19.83-1.76,1.28-.29.22-.56.46-.83.69l-.72.64Z"/>
            <path class="cls-15" d="M76.81,229.67c7.56,7.43,3.34,19.07.54,20.88,1.78,1.14,4.35,1.55,7.61.36,6.4-2.69,9.66-14.86,4.6-19.49-2.15-1.96-11.61-3.83-12.74-1.75Z"/>
            <path class="cls-6" d="M90.94,243.82c-.1.2-.98,1.85-3.92,2.55-3.13.74-.06-11.16-9.35-15.78v.03c6.33,7.44,2.37,18.2-.31,19.93,1.78,1.14,4.35,1.55,7.61.36,2.67-1.12,4.78-3.9,5.98-7.09Z"/>
            <path class="cls-14" d="M77.53,229.56c.62.56,1.11.97,1.7,1.92.6.81,1.02,1.74,1.43,2.65.78,1.86,1.1,3.88,1.13,5.87.02,1.99-.28,3.98-.87,5.88-.14.48-.31.95-.51,1.41-.17.47-.41.92-.64,1.37-.52.88-1,1.78-2.02,2.49v-1.22s0,0,0,0c1.39.88,3.12,1.09,4.8.82.83-.15,1.71-.36,2.42-.74.72-.35,1.42-.85,2.03-1.44,2.44-2.38,3.87-5.88,4.16-9.33.14-1.73-.03-3.49-.67-5.01-.31-.77-.77-1.44-1.33-2.01-.46-.54-1.26-.87-2.06-1.2-1.62-.62-3.38-1.06-5.14-1.31-.88-.12-1.76-.19-2.61-.17-.42,0-.84.05-1.2.13-.18.04-.34.1-.47.16-.05.03-.12.06-.14.09,0,0-.08.08.01-.04.05-.09.05-.25-.01-.34ZM76.1,229.77c0-.19.07-.43.19-.62.15-.23.17-.21.25-.29.13-.14.27-.22.41-.31.28-.16.55-.26.81-.34.53-.15,1.03-.21,1.52-.24.99-.05,1.94.02,2.89.13,1.89.24,3.73.65,5.54,1.33.45.18.9.37,1.35.62.22.12.45.25.67.42.23.16.46.37.61.55.73.74,1.31,1.62,1.68,2.56.77,1.87.93,3.88.77,5.8-.17,1.93-.64,3.81-1.43,5.57-.78,1.76-1.84,3.42-3.28,4.78-.71.68-1.53,1.27-2.46,1.71-.92.45-1.87.65-2.84.82-1.94.3-4.08.02-5.81-1.11h0c-.34-.2-.45-.64-.24-.98.06-.09.13-.17.21-.23l.03-.02c.58-.39,1.1-1.2,1.53-1.96.21-.4.42-.8.58-1.23.19-.42.33-.85.47-1.29.55-1.75.82-3.6.8-5.43-.03-1.83-.32-3.66-1.03-5.34-.38-.82-.74-1.66-1.29-2.39-.4-.7-1.3-1.63-1.93-2.52Z"/>
          </g>
          <g>
            <path class="cls-1" d="M184.03,263.31c-2.93,5.89-3.43,22.38,1.44,26.75,4.87,4.37,8.67-2.75,8.67-2.75l-10.11-24Z"/>
            <path class="cls-14" d="M184.67,263.63c-1.43,2.69-1.91,5.96-2.18,9.1-.22,3.17-.09,6.38.48,9.47.26,1.55.69,3.06,1.27,4.46.16.34.29.7.48,1.02l.58.93.7.77c.26.23.55.43.83.65,1.17.75,2.47.79,3.67.09,1.18-.7,2.26-1.89,3.03-3.13l.03-.04c.21-.33.64-.43.97-.23.32.2.42.61.25.93-.83,1.53-1.87,2.9-3.44,3.89-.77.5-1.75.79-2.72.78-1.01.02-1.91-.41-2.71-.86-.36-.28-.73-.53-1.06-.84-.3-.34-.61-.69-.9-1.04l-.67-1.14c-.21-.38-.34-.78-.52-1.18-.63-1.58-.96-3.22-1.17-4.85-.41-3.26-.42-6.53-.14-9.77.29-3.24.72-6.46,1.96-9.65.14-.37.55-.55.92-.4.37.14.55.55.4.92,0,.03-.02.05-.03.07l-.02.04Z"/>
          </g>
          <g>
            <path class="cls-11" d="M129.4,288.02c.47,16.8-4.1,28.63-.67,36.92,3.81,9.45,17.69,12.78,30.54,27.4,14.49,16.49,16.57,35.01,16.9,40.5.33,5.5,54.87,18.6,69.36,10.6,11.99-1.5,20.41-21.03-12.69-43.66-9.13-13.43-21.74-26.37-35.77-33.54-24.28-12.42-50.51-12.08-50.51-12.08,0,0,.23-19.8,3.73-26.14h-20.88Z"/>
            <path class="cls-6" d="M232.84,359.78c-9.13-13.43-21.74-26.37-35.77-33.54-24.28-12.42-50.51-12.08-50.51-12.08,0,0,.19-16.34,2.85-24.08l-11.47,5.83c6.99,9.53-1.44,24.49,1.78,25.5,3.22,1.01,9.74-2.39,20.71,0,14.5,3.16,48.23,15.28,48.74,44.29,13.63,8.4,10.79,16.29,6.13,16.36-2.69.04,8.41,12.95,18.27,23.87,5.01-.19,9.22-.95,11.97-2.47,11.99-1.5,20.41-21.03-12.69-43.66Z"/>
            <path class="cls-14" d="M128.55,307.55c9.25-14.61,19.31-10.62,19.31-10.62l1.55-6.77-19.92,3.64-.94,13.75Z"/>
            <path class="cls-14" d="M130.03,288c.16,4.1.04,8.21-.31,12.28-.34,4.08-.88,8.12-1.23,12.15-.18,2.01-.26,4.02-.19,6,.06,1.98.37,3.93,1.05,5.72.7,1.79,1.7,3.43,3.02,4.89,1.33,1.44,2.84,2.74,4.43,3.97,3.18,2.46,6.59,4.72,9.85,7.19,3.29,2.43,6.45,5.06,9.38,7.93,5.88,5.72,10.7,12.53,14.2,19.95,3.5,7.43,5.69,15.46,6.43,23.64l.06.77c.01.11.01.29.03.35,0,.05.02.11.06.18.14.29.5.62.87.9.76.57,1.64,1.04,2.54,1.47,1.81.85,3.7,1.56,5.61,2.22,3.83,1.3,7.75,2.37,11.69,3.31,7.89,1.87,15.91,3.28,23.99,4.01,4.04.36,8.09.54,12.12.38,2.01-.09,4.02-.26,5.99-.62,1.96-.36,3.9-.88,5.59-1.8h0s.02-.01.02-.01c.07-.03.14-.06.21-.07,2.27-.31,4.47-1.28,6.16-2.85.85-.77,1.59-1.67,2.16-2.67.58-.99,1.03-2.07,1.3-3.19.6-2.24.51-4.64.05-6.94-.47-2.31-1.36-4.53-2.48-6.62-2.26-4.2-5.41-7.9-8.88-11.22-3.47-3.33-7.29-6.31-11.27-9.03-.07-.05-.12-.1-.17-.17-4.76-6.98-10.19-13.51-16.3-19.34-6.11-5.8-12.92-10.94-20.51-14.61-7.57-3.71-15.62-6.44-23.86-8.3-8.23-1.86-16.68-3-25.09-3.11h-.02c-.35,0-.62-.29-.62-.63h0c.09-4.46.34-8.89.8-13.31.23-2.21.55-4.42.97-6.62.44-2.19.95-4.4,2.03-6.5.16-.31.54-.43.85-.27.31.16.43.54.27.85h0s-.02.03-.02.03c-.95,1.84-1.48,4-1.9,6.14-.41,2.15-.72,4.32-.95,6.51-.46,4.38-.71,8.79-.8,13.19l-.64-.64c8.58.11,17.05,1.26,25.38,3.14,8.32,1.87,16.46,4.63,24.14,8.4,7.72,3.73,14.64,8.95,20.82,14.83,6.18,5.9,11.67,12.49,16.48,19.54l-.17-.17c4.03,2.75,7.89,5.77,11.43,9.17,3.53,3.38,6.76,7.17,9.11,11.53,1.17,2.18,2.11,4.51,2.61,6.96.49,2.44.59,5.03-.06,7.5-.29,1.24-.79,2.43-1.43,3.52-.63,1.11-1.45,2.11-2.4,2.96-1.88,1.74-4.32,2.82-6.85,3.16l.23-.07h0c-1.9,1.02-3.95,1.54-5.99,1.91-2.04.36-4.1.52-6.15.61-4.11.14-8.2-.06-12.27-.44-8.14-.79-16.2-2.19-24.14-4.07-3.97-.95-7.92-2.03-11.8-3.34-1.94-.66-3.86-1.38-5.74-2.27-.94-.45-1.86-.93-2.74-1.58-.43-.34-.88-.68-1.2-1.3-.08-.15-.14-.33-.17-.54-.03-.2-.02-.27-.04-.41l-.05-.75c-.72-8.03-2.89-15.95-6.33-23.25-3.45-7.3-8.18-13.99-13.97-19.62-2.88-2.84-6.03-5.38-9.32-7.74-3.29-2.37-6.74-4.5-10.07-6.94-1.67-1.2-3.25-2.57-4.71-4.1-1.45-1.54-2.62-3.41-3.37-5.42-.75-2.02-1.06-4.16-1.11-6.24-.06-2.09.05-4.16.24-6.2.83-8.15,2.04-16.15,1.87-24.25,0-.35.27-.64.62-.64.34,0,.63.27.64.61Z"/>
            <path class="cls-11" d="M159.36,369.17c-3.58-6.8-1.38-11.3,2.71-13.43,4.14-2.16,28.93-5.36,51.66,13.43h-54.37Z"/>
            <path class="cls-14" d="M158.84,369.44c-.73-1.33-1.37-2.74-1.74-4.26-.35-1.52-.43-3.17-.01-4.76.44-1.58,1.37-3.03,2.61-4.07.6-.55,1.29-.97,1.99-1.36l1.15-.47,1.13-.31c2.99-.73,6-.92,9-.93,1.5-.05,3,.1,4.49.15,1.49.18,2.99.27,4.46.53,5.92.91,11.7,2.66,17.12,5.16,5.44,2.49,10.47,5.8,15.06,9.59.25.21.29.58.08.83-.2.25-.57.29-.82.09h0c-4.58-3.67-9.6-6.76-14.92-9.17-5.32-2.41-10.98-4.08-16.75-4.93-1.44-.25-2.9-.32-4.35-.49-1.46-.04-2.91-.18-4.37-.12-2.9.03-5.84.24-8.59.93l-1.01.28-.9.36c-.59.33-1.18.67-1.68,1.12-1.04.85-1.76,2-2.16,3.25-.76,2.57.03,5.46,1.25,8.03h0c.14.31.01.66-.28.8-.28.13-.62.02-.77-.25Z"/>
            <path class="cls-1" d="M150.73,206.62c-4.98,1.68-8.6,3.96-9.45,5.85,0,0-1.74,10.75-1.54,20.38-11.01,7.03-19.82,12.96-23.11,29.68-3.3,10.84-1.56,20.98,8.84,26.98,10.26,5.92,28.46,11.66,44.78-9.33,16.32-20.98,6.67-74.11,2.66-75.03-3.58-.82-7.29-1.01-10.86-.77l-11.33,2.24Z"/>
            <path class="cls-15" d="M172.93,205.16c-4.1-.94-8.37-1.05-12.4-.64-7.49,11.52-14.87,28.95-14.87,28.95,0,0-2.86-14.49-2.45-23.13-.95.73-1.61,1.46-1.91,2.13,0,0-1.74,10.75-1.54,20.38-10.46,6.67-18.92,12.37-22.56,27.25l59.57,6.01c6.51-24.45-.55-60.2-3.83-60.96Z"/>
            <g>
              <path class="cls-6" d="M139.75,232.86c1.93-.02,3.92.15,5.86.42-.13-.67-.57-3.04-1.05-6.16-1.93.64-3.64,2.36-4.81,5.74Z"/>
              <path class="cls-6" d="M159.46,235.2c-.63-1.33-5.84-6.87-10.95-8.14-1.5,3.24-2.51,5.58-2.78,6.22,7.66,1.08,14.57,3.67,13.74,1.91Z"/>
            </g>
            <path class="cls-6" d="M160.06,251.08c5.8,1.31,13.09,5.33,18.1,8.4,2.64-16.08.69-34.91-1.78-45.65l-4.35-.25c3.74,12.16-.46,36.23-11.97,37.5Z"/>
            <path class="cls-11" d="M170.26,280.18c2.58-3.31,4.5-7.43,5.91-12.01-9.77-3.39-36.5-11.67-58.66-9.31-.32,1.17-.61,2.37-.87,3.66-3.3,10.84-1.56,20.98,8.84,26.98,10.26,5.92,28.46,11.66,44.78-9.33Z"/>
            <path class="cls-14" d="M143.95,295.76c-7.54,0-14.24-2.83-18.9-5.52-9.74-5.61-13.01-15.54-9.23-27.96,3.36-17.12,12.9-23.4,23.06-29.89-.14-9.48,1.54-19.95,1.56-20.06.01-.07.03-.15.06-.21.97-2.15,4.78-4.56,9.95-6.3.45-.15.93.09,1.08.54.15.45-.09.93-.54,1.08-5.19,1.75-8.18,3.9-8.9,5.3-.19,1.2-1.7,11.2-1.51,20.11,0,.3-.14.58-.39.74-10.43,6.66-19.44,12.41-22.73,29.12-2.52,8.28-3.08,19.44,8.43,26.08,11.53,6.65,28.46,10.46,43.69-9.11,11.79-15.16,9.51-47.42,6.65-62.36-1.45-7.58-2.96-10.98-3.57-11.34-.46-.11-.72-.55-.61-1.01.1-.46.59-.74,1.05-.63.64.15,1.45.71,2.55,3.8,3.92,10.99,9.93,53.71-4.74,72.58-8.91,11.46-18.48,15.06-26.98,15.06Z"/>
            <path class="cls-4" d="M153.65,399.35c-11.97-17.99,3.27-42.47,35.24-30.47,12.06,3.91,24.02,11.13,33.89,18.39,12.61,2.08,19.47,4.59,23.29,7.19-6.15,7.87-87.86,19.26-92.43,4.9Z"/>
            <path class="cls-3" d="M153.92,379.77c.62-2.28,1.62-4.36,3.02-6.06,1.44-1.64,3.2-2.91,5.18-3.81,1.99-.86,4.16-1.43,6.48-1.52,2.35-.04,4.75.24,7.43,1.44.82.37,1.45,1.36,1.4,2.22-.03.62-.41.99-.92,1.02h-.14c-1.97.1-4.06.21-6.05.37-2,.16-3.98.41-5.79.99-1.83.54-3.53,1.35-5.08,2.41-1.52,1.11-2.85,2.49-4.07,4.11l-.02.03c-.23.3-.71.24-1.08-.15-.3-.31-.43-.74-.35-1.06Z"/>
            <path class="cls-7" d="M222.78,387.26c-3.38-2.49-7.02-4.97-10.81-7.32,3.18,4.27,4.03,9.05,1.75,12.91-4.58,7.79-35.1,15.77-63.07.28.67,2.11,1.65,4.2,2.99,6.21,4.57,14.36,86.28,2.97,92.43-4.9-3.83-2.6-10.68-5.12-23.29-7.19Z"/>
            <path class="cls-14" d="M229.21,395.3c-.33,0-.64-.19-.78-.5-.01-.03-1.5-3.24-6.18-6.87-.37-.29-.44-.82-.15-1.19.29-.37.82-.44,1.19-.15,5.04,3.92,6.62,7.38,6.69,7.52.19.43,0,.93-.43,1.12-.11.05-.23.07-.35.07Z"/>
            <path class="cls-14" d="M179.66,407.04c-5.87,0-11.18-.34-15.43-1.1-6.51-1.17-10.33-3.26-11.35-6.21-5.67-8.6-5.55-18.91.33-26.31,7.22-9.09,20.67-11.09,35.99-5.34,13.13,4.25,25.68,12.32,33.93,18.38,11.3,1.87,18.96,4.26,23.43,7.29.2.13.33.34.36.57.04.23-.03.47-.17.66-4.3,5.51-41.17,12.06-67.09,12.06ZM172.9,366.55c-7.76,0-14.21,2.69-18.37,7.92-5.43,6.83-5.5,16.41-.18,24.4.04.07.08.14.1.21.74,2.34,4.23,4.12,10.07,5.17,22.66,4.07,72.47-3.97,80.17-9.68-4.4-2.64-11.64-4.77-22.06-6.48-.13-.02-.26-.08-.37-.16-8.15-6-20.61-14.04-33.65-18.26-5.6-2.1-10.92-3.13-15.73-3.13Z"/>
            <path class="cls-11" d="M126.9,280.27c-11.81,7.49-51.33,22.35-52.73,37.57-2.66,28.96-9.66,68.79-7.83,75,1.25,4.22,20.67,16.48,72.77,27.98,9.44-2.75,10.48-21.44-11.49-44.63-6.23-20.23-11.61-38.72-27.16-54.79,2.82-6,16.96-16.74,40.22-27.67l-13.79-13.46Z"/>
            <path class="cls-6" d="M138.99,294.55c9.45,1.57,20.75-.84,31.27-14.37,2.58-3.31,4.5-7.43,5.91-12.01-9.77-3.39-36.5-11.67-58.66-9.31-.32,1.17-.61,2.37-.87,3.66-.6,1.97-1.03,3.91-1.27,5.81,24.08-10.84,43.44,3.65,40.35,10.69-3.22,7.33-19.41,7.96-21.48,10.25-11.38,12.63-38.45,23.38-44.35,26.72-5.9,3.33,4.47,5.03,5.4,6.51.93,1.48-1.93,3.07,0,4.65,4.32,3.52,9.26,5.76,13.5,19.83,4.09,13.55,6.98,32.84-8.01,34.17,0,0,14.2,8.81,11.65,18.12-1.16,4.24,10.16,12.71,22.84,20.66,1.27.29,2.55.58,3.86.87,9.44-2.75,10.48-21.44-11.49-44.63-6.23-20.23-11.61-38.72-27.16-54.79,2.75-5.84,16.28-16.2,38.52-26.85Z"/>
            <path class="cls-14" d="M127.05,280.5c-3.82,2.64-7.95,4.73-12,6.9-4.09,2.1-8.18,4.2-12.23,6.35-4.05,2.14-8.05,4.39-11.9,6.84-3.83,2.47-7.57,5.13-10.74,8.32-1.57,1.59-3.01,3.33-3.99,5.27-.46.97-.88,1.98-1.03,3.01l-.13.78-.08.86-.16,1.72c-.45,4.59-.97,9.16-1.52,13.74-1.1,9.14-2.34,18.27-3.52,27.39-.59,4.56-1.18,9.12-1.7,13.68-.51,4.56-1.01,9.14-1.12,13.66,0,1.11,0,2.27.2,3.24.03.11.05.24.08.35.04.09.07.17.11.26.12.19.22.39.39.58.3.4.68.78,1.08,1.14,1.62,1.46,3.54,2.7,5.49,3.84,3.93,2.28,8.09,4.19,12.31,5.94,8.47,3.48,17.18,6.39,26,8.94,8.82,2.56,17.74,4.78,26.7,6.8h-.35s0,.01,0,.01c1.93-.55,3.52-1.96,4.47-3.76.96-1.81,1.33-3.92,1.38-6.02.03-4.24-1.19-8.47-2.87-12.42-1.71-3.96-3.95-7.7-6.46-11.24-2.53-3.53-5.33-6.87-8.32-10.03h0c-.08-.08-.13-.18-.16-.28-3.07-9.83-6.03-19.7-10.24-29.04-2.11-4.66-4.48-9.2-7.27-13.47-2.78-4.28-5.97-8.29-9.48-11.99h0s-.03-.03-.03-.03c-.2-.21-.23-.52-.11-.77,1-1.99,2.42-3.58,3.9-5.06,1.48-1.48,3.06-2.84,4.69-4.13,3.26-2.58,6.68-4.9,10.18-7.1,3.5-2.2,7.1-4.22,10.74-6.18,3.63-1.97,7.34-3.76,11.06-5.54.35-.17.78-.02.94.33.17.35.02.78-.33.94h0c-3.7,1.78-7.39,3.57-11,5.52-3.61,1.94-7.19,3.95-10.65,6.13-3.47,2.17-6.86,4.47-10.05,7-1.6,1.26-3.14,2.59-4.56,4.02-1.43,1.41-2.77,2.96-3.62,4.66l-.13-.79h0c7.3,7.41,13.04,16.3,17.21,25.79,4.2,9.5,7.11,19.44,10.12,29.28l-.16-.28h0c3.03,3.21,5.87,6.59,8.44,10.18,2.56,3.6,4.85,7.42,6.61,11.5,1.73,4.08,3.02,8.45,2.99,13-.06,2.26-.45,4.58-1.55,6.66-1.08,2.07-3.02,3.8-5.33,4.45h0c-.1.04-.21.04-.31.02h-.04c-9-1.97-17.96-4.14-26.84-6.66-8.87-2.52-17.67-5.34-26.23-8.86-4.27-1.78-8.49-3.71-12.52-6.05-2.01-1.18-3.99-2.44-5.79-4.07-.45-.42-.88-.84-1.28-1.37-.2-.24-.38-.55-.56-.85-.08-.18-.15-.36-.22-.54-.05-.17-.08-.33-.11-.49-.24-1.29-.23-2.45-.23-3.63.11-4.68.62-9.25,1.13-13.84.52-4.58,1.11-9.15,1.7-13.71,1.19-9.13,2.43-18.24,3.53-27.37.55-4.56,1.07-9.13,1.52-13.7l.16-1.71.08-.86.15-.92c.19-1.24.66-2.39,1.19-3.49,1.1-2.18,2.65-4.02,4.3-5.7,3.33-3.34,7.15-6.04,11.04-8.55,3.91-2.48,7.95-4.75,12.03-6.91,4.08-2.16,8.24-4.15,12.38-6.16,2.08-.98,4.17-1.95,6.23-2.95,2.08-.98,4.13-1.99,6.14-3.09h0c.13-.08.3-.03.37.1.07.12.03.28-.08.35Z"/>
            <path class="cls-11" d="M57.34,382.44c0-9.16,6.07-14.53,10.72-14.53,4.12-.06,19.3,1.89,36.93,16.54l-47.65-2.02Z"/>
            <path class="cls-14" d="M56.7,382.44c-.04-2.62.4-5.28,1.48-7.73.57-1.21,1.24-2.37,2.09-3.42.87-1.03,1.87-1.96,3.03-2.7,1.15-.73,2.46-1.29,3.88-1.47.73-.08,1.4-.07,2.05-.03.66.04,1.31.1,1.95.18,2.58.32,5.11.91,7.57,1.66,4.93,1.5,9.65,3.61,14.11,6.16,4.46,2.55,8.62,5.58,12.53,8.87.27.23.3.63.08.9-.22.27-.62.3-.89.08-3.92-3.18-8.1-6.03-12.47-8.53-4.39-2.46-9.02-4.5-13.82-5.92-2.4-.71-4.85-1.26-7.31-1.55-.62-.08-1.23-.13-1.84-.16-.61-.04-1.22-.03-1.76.02-1.11.13-2.21.57-3.2,1.19-1.99,1.25-3.55,3.19-4.6,5.35-1,2.2-1.55,4.62-1.61,7.08,0,.35-.3.63-.65.63-.34,0-.62-.29-.63-.63Z"/>
            <path class="cls-4" d="M44.35,414.82c-11.97-17.99,3.27-42.47,35.24-30.47,9.16,2.97,18.27,7.85,26.45,13.21,20.99,5.26,28.71,10.88,30.81,15.61-2.42,10.39-87.93,16.02-92.5,1.65Z"/>
            <path class="cls-3" d="M45.6,394.87c.62-2.28,1.62-4.36,3.02-6.06,1.44-1.64,3.2-2.91,5.18-3.81,1.99-.86,4.16-1.43,6.48-1.52,2.35-.04,4.75.24,7.43,1.44.82.37,1.45,1.36,1.4,2.22-.03.62-.41.99-.92,1.02h-.14c-1.97.1-4.06.21-6.05.37-2,.16-3.98.41-5.79.99-1.83.54-3.53,1.35-5.08,2.41-1.52,1.11-2.85,2.49-4.07,4.11l-.02.03c-.23.3-.71.24-1.08-.15-.3-.31-.43-.74-.35-1.06Z"/>
            <path class="cls-7" d="M106.04,397.56c-3.92-2.57-8.06-5.02-12.31-7.21,3.56,3.88,6.03,8.38,6.23,13.1.43,10.48-40.97,18.29-57.22,8.56.47.95,1,1.9,1.61,2.82,4.57,14.36,90.08,8.73,92.5-1.65-2.1-4.73-9.82-10.35-30.81-15.61Z"/>
            <path class="cls-14" d="M82.06,424.32c-18.41,0-36.14-2.36-38.48-9.12-5.67-8.6-5.55-18.91.33-26.31,7.22-9.09,20.67-11.09,35.99-5.34,8.26,2.68,17.19,7.13,26.5,13.22,18.01,4.53,28.52,9.93,31.24,16.06.08.17.09.36.05.54-1.66,7.13-31.17,10.17-46.54,10.78-3,.12-6.05.18-9.08.18ZM63.6,382.03c-7.76,0-14.21,2.69-18.37,7.92-5.43,6.83-5.5,16.41-.18,24.4.04.07.08.14.1.21,1.82,5.73,20.27,8.89,45.91,7.87,23.31-.92,43.15-5.02,44.86-9.21-1.92-3.87-8.76-9.5-30.11-14.85-.09-.02-.18-.06-.26-.11-9.23-6.05-18.06-10.46-26.25-13.11-5.6-2.1-10.91-3.13-15.73-3.13Z"/>
            <path class="cls-14" d="M118.81,410.18c-.23,0-.47-.1-.64-.28-.06-.07-6.4-7.13-12.63-11.65-.38-.28-.47-.81-.19-1.19.28-.38.81-.47,1.19-.19,6.38,4.62,12.64,11.6,12.9,11.89.31.35.28.89-.07,1.2-.16.15-.37.22-.57.22Z"/>
            <g>
              <path class="cls-14" d="M114.53,428.14c6.16-.4,12.72,1.22,12.72,1.22,0,0-7.07-15.97-12.72-1.22Z"/>
              <path class="cls-14" d="M127.25,430.21c-.07,0-.14,0-.2-.02-.06-.02-6.51-1.58-12.46-1.2-.29.01-.57-.11-.74-.34-.17-.23-.21-.54-.11-.81,1.73-4.51,3.76-6.74,6.21-6.8.03,0,.07,0,.1,0,4.33,0,7.62,7.16,7.98,7.98.13.3.08.64-.13.89-.16.2-.4.3-.65.3ZM116.59,427.23c3.63,0,7.1.54,9.1.93-1.26-2.28-3.48-5.42-5.65-5.42h-.06c-1.45.04-2.88,1.59-4.17,4.5.26,0,.51,0,.77,0Z"/>
            </g>
            <path class="cls-2" d="M136.85,413.17c-7.97,7.74-73.86,12.16-92.5,1.65-4.07,2.25-3.9,8.41-.48,11.74,4.92,5.06,40.99,9.92,69.17,5.89,4.07-14.41,10.12-11.52,14.21-3.09,5.86-1.82,10.83-4.27,14.37-7.45,2.25-1.93-.98-5.34-4.77-8.74Z"/>
            <path class="cls-14" d="M90.4,434.78c-22.26,0-43.38-3.75-47.14-7.62-2.06-2.01-3.12-5.04-2.73-7.88.31-2.31,1.52-4.15,3.41-5.19.26-.14.57-.14.83,0,18.25,10.29,84.01,5.75,91.49-1.52.32-.31.83-.32,1.16-.02,3.5,3.14,5.82,5.68,5.79,7.88,0,.83-.37,1.57-1.04,2.15-3.42,3.08-8.37,5.65-14.67,7.62-.4.12-.84-.06-1.02-.44-2.1-4.33-4.48-6.7-6.53-6.53-2.26.2-4.42,3.57-6.1,9.48-.09.32-.37.56-.7.61-7.28,1.04-15.09,1.49-22.77,1.49ZM44.37,415.81c-1.18.81-1.95,2.1-2.16,3.69-.31,2.29.58,4.82,2.25,6.45,4.7,4.84,40.56,9.51,67.92,5.73,1.91-6.49,4.41-9.91,7.43-10.18,2.72-.23,5.49,2.18,7.88,6.83,5.74-1.86,10.23-4.23,13.36-7.05.32-.27.46-.54.46-.89.02-1.68-2.94-4.51-4.68-6.1-10.33,7.53-73.34,11.67-92.45,1.51Z"/>
            <g>
              <path class="cls-14" d="M235.73,408.42s-4.97-2.2-11.67-2.46c3.52-7.34,7.81-4.58,11.67,2.46Z"/>
              <path class="cls-14" d="M235.73,409.27c-.12,0-.23-.02-.34-.07-.05-.02-4.91-2.14-11.36-2.39-.29-.01-.55-.17-.7-.41-.15-.25-.16-.55-.04-.81,1.5-3.14,3.29-4.76,5.32-4.82.04,0,.07,0,.11,0,2.51,0,5.12,2.43,7.76,7.24.17.32.13.72-.12.99-.17.18-.39.28-.63.28ZM225.43,405.19c3.52.27,6.45,1.02,8.35,1.62-1.85-2.85-3.64-4.38-5.12-4.33-1.31.04-2.41,1.32-3.23,2.71Z"/>
            </g>
            <path class="cls-2" d="M245.53,394.45c-7.97,7.74-67.38,13.89-91.88,4.89-4.07,2.25-3.9,8.41-.48,11.74,4.92,5.07,40.87,5.73,69.27.45,3.87-12.5,9.35-10.43,13.29-3.12,6.35-1.86,11.8-4.13,15.69-6.83,3.1-2.15-3.22-6.26-5.89-7.14Z"/>
            <path class="cls-14" d="M181.08,416.07c-14.27,0-25.7-1.48-28.52-4.39-2.06-2.01-3.12-5.04-2.73-7.88.31-2.31,1.52-4.15,3.41-5.19.22-.12.47-.14.71-.05,23.77,8.73,83.32,2.75,90.99-4.71.23-.22.56-.3.86-.2,1.91.63,6.88,3.41,7.29,6.19.14.96-.28,1.84-1.18,2.46-3.76,2.61-9.12,4.95-15.93,6.94-.39.11-.8-.06-.99-.41-1.96-3.62-4.16-5.6-5.98-5.42-2.1.21-4.14,3.18-5.75,8.38-.09.3-.35.53-.66.58-13.31,2.48-28.58,3.69-41.51,3.69ZM153.74,400.29c-1.22.8-2.01,2.12-2.23,3.74-.31,2.29.58,4.82,2.25,6.45,4.44,4.57,39.41,5.55,68.02.32,1.86-5.75,4.23-8.8,7.05-9.08,2.52-.24,5.03,1.72,7.31,5.7,6.32-1.9,11.3-4.09,14.79-6.51.46-.32.49-.59.46-.82-.21-1.45-3.5-3.77-5.69-4.65-9.61,7.8-67.55,13.54-91.97,4.86Z"/>
            <path class="cls-14" d="M96.71,326.76c-.28,0-.55-.13-.71-.38-.26-.39-.15-.92.24-1.18.01,0,1.75-1.21,3.49-4.23.24-.41.76-.55,1.16-.31.41.24.55.76.31,1.16-1.96,3.39-3.94,4.74-4.03,4.79-.14.1-.31.14-.47.14Z"/>
          </g>
          <g>
            <path class="cls-3" d="M145.05,230.18c-2.6-21.93-19.09-20.94-19.09-21.32s10.84-11.41,27.48-16.55l-2.71,14.32s-5.05,2.59-5.08,2.94c-1.71,6.44-.6,20.62-.6,20.62Z"/>
            <path class="cls-14" d="M145.05,231.03c-.43,0-.79-.32-.84-.75-1.01-8.53-4.91-19-17.71-20.46-.62-.07-1.38-.16-1.38-.96,0-1.08,11.37-12.2,28.08-17.37.29-.09.6-.02.82.18.22.2.33.5.27.79l-2.71,14.32c-.05.26-.21.48-.45.6-1.9.97-4.11,2.18-4.7,2.61-1.57,6.33-.53,19.98-.52,20.12.04.46-.3.87-.77.91-.03,0-.06,0-.08,0ZM127.64,208.25c7.8,1.18,13.3,5.67,16.21,13.18-.03-4.18.15-8.92.96-12.03.06-.46.32-.86,5.16-3.35l2.37-12.51c-12.79,4.28-21.84,11.88-24.7,14.7ZM146.5,209.65s0,0,0,0t0,0ZM146.5,209.64h0s0,0,0,0Z"/>
          </g>
          <path class="cls-14" d="M153.44,264.92c11.77,3.29,18.71,11.76,18.71,11.76l2.5-3.6s-8.87-5.9-21.2-8.16Z"/>
          <path class="cls-1" d="M219.56,238.56c-12.33,9.68-10.49,18.23-10.49,18.23,0,0,10.15,3.6,6.91,13.9,5.5,8.49,12.99,4.25,15.84,12.16,1.29,3.02-2.12,10.75-14.84,8.41.35,3.61-1.17,7.51-6.74,7.07-8.66-.66-25.89-8.98-26.23-33.63-.16-12.15,11.4-26.82,17.9-35.81l17.66,9.67Z"/>
          <path class="cls-14" d="M217.63,291.11c.18,1.59.11,3.31-.69,4.86-.77,1.56-2.4,2.73-4.07,3.03-.84.2-1.67.2-2.49.17-.8-.07-1.59-.15-2.36-.3-1.55-.3-3.07-.73-4.51-1.32-2.91-1.14-5.62-2.76-8.03-4.74-2.4-1.99-4.45-4.38-6.16-6.95-3.33-5.24-5.2-11.31-5.68-17.44l-.13-2.3c-.04-.77-.1-1.53-.07-2.32.06-1.56.27-3.11.61-4.62.69-3.03,1.78-5.93,3.08-8.71.15-.33.55-.47.88-.32.33.15.47.55.32.88,0,0,0,0,0,.01-1.31,2.7-2.45,5.49-3.11,8.4-.34,1.45-.53,2.92-.59,4.4-.03,1.47.14,2.99.2,4.48.01.75.16,1.49.27,2.23l.33,2.22c.12.74.35,1.45.52,2.18.2.72.32,1.46.59,2.16.53,1.4.97,2.83,1.69,4.14.34.66.63,1.35,1.02,1.99l1.19,1.89c1.7,2.43,3.68,4.68,6.02,6.51,2.34,1.81,4.93,3.3,7.68,4.35.68.29,1.39.49,2.09.7.7.24,1.42.36,2.13.52.71.14,1.44.22,2.15.29.7.03,1.4.03,2.05-.12,1.32-.23,2.42-.98,3.05-2.13.65-1.14.83-2.59.74-4.01v-.02c-.03-.36.25-.68.61-.7.35-.02.66.24.7.58Z"/>
          <path class="cls-14" d="M199.13,273.86c.11,1.31.52,2.68,1.07,3.93.56,1.26,1.19,2.49,1.99,3.61,1.55,2.26,3.56,4.2,5.88,5.64,2.32,1.44,4.9,2.42,7.57,3.07,2.68.63,5.45.93,8.11.58,2.62-.37,5.19-1.56,6.56-3.7.67-1.04,1.05-2.32.85-3.41l-.11-.39c-.05-.14-.13-.3-.19-.45-.13-.3-.25-.62-.4-.91l-.5-.82c-.17-.27-.4-.48-.6-.73-1.72-1.89-4.6-2.36-7.28-3.53-2.75-1.1-5.1-3.23-6.66-5.7-.1-.16-.12-.35-.08-.51v-.03s0,0,0,0c.15-.67.36-1.33.46-2.01.05-.68.19-1.36.11-2.03,0-1.35-.38-2.68-1.01-3.86-.62-1.19-1.52-2.24-2.57-3.11-1.05-.86-2.28-1.6-3.5-2.09l-.05-.02c-.2-.08-.33-.26-.36-.45-.17-1.06-.12-1.98,0-2.95.11-.95.35-1.88.62-2.79.57-1.81,1.45-3.5,2.47-5.07,1-1.59,2.24-3,3.5-4.36.66-.65,1.34-1.29,2.01-1.93l2.13-1.79c.27-.23.68-.19.91.08.23.27.19.68-.08.91l-.03.03-2.07,1.73c-.65.62-1.3,1.23-1.94,1.87-1.21,1.32-2.4,2.66-3.35,4.17-.97,1.49-1.79,3.07-2.32,4.75-.25.84-.47,1.69-.57,2.56-.11.84-.14,1.77-.02,2.51l-.42-.47c1.46.57,2.72,1.35,3.9,2.31,1.16.96,2.18,2.14,2.89,3.5.72,1.35,1.15,2.89,1.16,4.41.08.77-.06,1.52-.13,2.27-.11.75-.34,1.47-.51,2.2h0s-.07-.54-.07-.54c1.52,2.27,3.6,4.07,6.15,5.04,1.26.52,2.61.9,3.98,1.41,1.36.51,2.79,1.23,3.88,2.38.25.3.54.58.76.9l.62.98c.17.34.31.68.47,1.03.07.18.15.33.22.52l.19.63c.33,1.71-.2,3.33-1.04,4.66-.85,1.33-2.08,2.36-3.43,3.09-1.34.77-2.84,1.11-4.3,1.37-2.97.39-5.92.06-8.74-.6-2.82-.73-5.59-1.79-8.03-3.44-2.44-1.63-4.53-3.77-6.1-6.23-1.6-2.47-2.6-5.17-3.29-8.08-.08-.35.13-.7.48-.78.35-.08.7.13.78.48,0,.03.01.06.01.09v.05Z"/>
          <path class="cls-15" d="M169.76,213.75c15.24-1.5,22.12,5.11,22.98,8.98.86,3.87-9.83,8.12-14.99,17.49-5.16,9.36,7.01,18.45,7.01,18.45,0,0,4.63-6.62,24.79-6.92,16.16,1.43,29.15-15.34,27.4-33.27-1.65-16.91-48.96-24.48-71.69-15.74l4.5,11Z"/>
          <path class="cls-6" d="M236.96,218.49c-.05-.53-.15-1.05-.29-1.56-4.75-1.55-11.75.02-18.06,3.49-8.41,4.61-6.41,25.49-8.41,26.63-2,1.14-22.22-16.15-26.2,6.26l8.02,1.04c3.79-1.33,9.4-2.48,17.53-2.6,16.16,1.43,29.15-15.34,27.4-33.27Z"/>
          <path class="cls-14" d="M169.7,213.11c3-.28,6.04-.31,9.06.08,3,.41,6.01,1.19,8.7,2.72,1.36.73,2.61,1.68,3.7,2.81.55.56,1.04,1.19,1.46,1.88.23.33.37.73.56,1.09.12.42.29.75.33,1.29.06,1.03-.4,1.88-.87,2.54-.48.67-1.02,1.24-1.57,1.78-1.1,1.07-2.25,2.02-3.37,2.99-2.26,1.92-4.41,3.91-6.29,6.12-.94,1.1-1.8,2.26-2.54,3.5-.76,1.23-1.28,2.47-1.5,3.83-.41,2.72.51,5.54,2.03,7.95,1.52,2.42,3.52,4.63,5.74,6.44h0s-.91.15-.91.15c1.65-1.91,3.65-2.9,5.71-3.82,2.07-.87,4.21-1.54,6.39-1.99,1.08-.27,2.18-.41,3.28-.61,1.1-.14,2.2-.29,3.3-.4,1.1-.08,2.21-.19,3.31-.25l3.31-.12h.04s.02,0,.02,0c5.16.38,10.45-1.07,14.62-4.2,4.27-3,7.45-7.39,9.55-12.16,2.11-4.79,2.91-10.12,2.58-15.33,0-1.34-.34-2.49-.79-3.67-.3-.55-.56-1.13-.92-1.65-.39-.5-.71-1.05-1.18-1.5-1.71-1.91-3.87-3.43-6.15-4.72-2.28-1.29-4.71-2.34-7.2-3.22-2.49-.88-5.02-1.64-7.6-2.24-5.15-1.24-10.42-2-15.7-2.4-5.29-.39-10.61-.41-15.88.06-5.27.47-10.52,1.42-15.44,3.26h-.01c-.33.13-.7-.04-.82-.37-.12-.33.04-.7.38-.82h0c5.09-1.9,10.44-2.86,15.78-3.34,5.36-.48,10.74-.46,16.09-.06,5.35.41,10.68,1.18,15.91,2.43,2.62.61,5.2,1.38,7.74,2.28,2.54.9,5.03,1.97,7.39,3.31,2.36,1.33,4.62,2.92,6.48,4.99.5.48.86,1.09,1.28,1.64.4.57.7,1.22,1.03,1.84l.36,1,.18.5.1.52.19,1.05c.05.35.04.68.06,1.02.34,5.41-.49,10.94-2.68,15.92-2.18,4.96-5.48,9.54-9.97,12.69-4.38,3.29-10.01,4.85-15.48,4.44h.07s-3.26.12-3.26.12c-1.09.06-2.17.16-3.25.24-1.08.11-2.16.26-3.23.4-1.06.2-2.14.34-3.19.6-2.12.43-4.19,1.09-6.16,1.91-.99.41-1.93.91-2.84,1.45-.44.29-.88.58-1.28.91-.39.31-.81.7-1.05,1.02l-.02.02c-.21.28-.61.33-.89.12h0c-2.43-1.89-4.57-4.07-6.24-6.68-1.65-2.57-2.79-5.74-2.34-8.97.22-1.59.87-3.14,1.67-4.44.78-1.33,1.68-2.57,2.66-3.74,1.95-2.35,4.25-4.35,6.54-6.26,1.14-.96,2.29-1.9,3.35-2.88.52-.49,1.02-1,1.42-1.54.4-.53.65-1.09.63-1.57,0-.21-.14-.57-.22-.86-.15-.3-.25-.61-.44-.9-.34-.59-.76-1.15-1.24-1.66-.95-1.03-2.1-1.9-3.36-2.58-2.49-1.44-5.35-2.19-8.22-2.6-2.89-.39-5.83-.37-8.75-.11h-.01c-.35.03-.66-.23-.69-.58-.03-.35.23-.66.58-.69Z"/>
          <path class="cls-15" d="M184.1,262.46c-4.7-17.64,14.39-22.24,25.46-10.7,1.7,3.91-.49,5.04-.49,5.04,0,0-17.39-2.77-24.97,5.67Z"/>
          <path class="cls-14" d="M183.91,263.24c-.27-.43-.63-1.02-.82-1.66-.21-.7-.21-1-.29-1.46-.15-.85-.21-1.73-.23-2.61-.04-1.75.2-3.55.84-5.23.62-1.68,1.66-3.24,3.01-4.44,1.34-1.23,2.97-2.08,4.67-2.59,3.42-1.04,7.09-.76,10.38.36,3.31,1.12,6.28,3.11,8.68,5.6h0c.07.07.12.14.15.23h0c.19.47.36.94.5,1.43.12.5.22,1.01.21,1.56,0,.54-.08,1.12-.33,1.67-.13.27-.28.53-.48.77-.21.25-.38.43-.76.65-.14.08-.29.11-.44.09h-.05c-2.11-.31-4.32-.42-6.48-.42-2.17.01-4.35.14-6.47.5-2.12.37-4.22.88-6.16,1.75-.5.19-.94.48-1.41.71-.23.13-.47.24-.7.38l-.64.45-.64.45c-.11.08-.21.14-.33.24l-.41.36c-.57.48-1.21.88-1.77,1.22ZM184.29,261.68c.24-.43.4-.78.63-1.07.06-.07.12-.14.19-.21.09-.08.23-.17.34-.25l.71-.5.71-.5c.25-.15.51-.28.76-.41.51-.26,1.01-.57,1.54-.78,2.1-.94,4.33-1.48,6.55-1.87,2.23-.39,4.48-.51,6.73-.53,2.25,0,4.47.12,6.74.44l-.49.08s.19-.14.26-.25c.1-.11.17-.25.25-.4.13-.29.19-.65.19-1.02,0-.37-.07-.76-.16-1.16-.11-.39-.25-.79-.41-1.18l.16.23h0c-2.25-2.31-5.01-4.14-8.05-5.16-3.03-1.02-6.36-1.23-9.36-.31-3.02.87-5.5,3.13-6.6,6.03-.56,1.45-.79,3.03-.77,4.62.02.79.06,1.59.2,2.39.05.37.15.89.15,1.01,0,.18-.18.41-.26.79Z"/>
          <path class="cls-4" d="M118.18,249.64c19.36-10.57,60.75,7.57,61.25,10.57.5,3-2.42,12.33-4.82,12.33-14.34-8.67-47.98-14.4-59.3-3.71-3.66-4.29-.72-17.23,2.87-19.19Z"/>
          <path class="cls-7" d="M159.46,266.38c9.85-.67,9.58-12.03,9.58-12.03,0,0,10.33,4.85,10.38,5.85s-.5,10.14-4.82,12.33c-5.16-2.64-15.15-6.15-15.15-6.15h0Z"/>
          <path class="cls-14" d="M174.61,273.38c-.16,0-.31-.04-.44-.12-14.32-8.65-47.48-14.02-58.28-3.82-.17.16-.4.25-.63.23-.23-.01-.45-.12-.6-.3-1.82-2.13-2.36-6.34-1.46-11.26.64-3.45,2.22-7.94,4.57-9.23h0c14.57-7.96,42.33-.04,56.4,6.82,5.84,2.85,6.02,3.94,6.09,4.35.43,2.6-1.46,9.58-3.66,12.18-.64.76-1.32,1.14-2,1.14ZM136.24,262.15c13.58,0,29.34,4.05,38.51,9.48.12-.07.31-.21.55-.49,1.85-2.18,3.61-8.47,3.29-10.73-.8-1.28-9.59-5.82-21.34-9.29-9.7-2.86-27.62-6.76-38.67-.73h0c-1.44.79-3,4.17-3.71,8.05-.7,3.82-.47,7.19.59,9.12,4.65-3.82,12.29-5.4,20.78-5.4Z"/>
          <path class="cls-3" d="M148.63,226.82c8.15-16.07,28.77-27.26,37.68-30.88-7.87-6.81-26.19-4.86-26.19-4.86,0,0-.37,12.27-1.12,13.22s-6.69,11.29-10.37,22.52Z"/>
          <path class="cls-14" d="M148.63,227.67c-.11,0-.22-.02-.33-.06-.41-.17-.62-.63-.48-1.05,3.78-11.54,9.77-21.85,10.51-22.79.35-.76.76-7.08.93-12.71.01-.43.34-.78.76-.82.67-.07,16.47-1.59,26.74,4.99.28.18.43.51.38.84-.05.33-.29.6-.61.69-10.52,2.97-29.01,14.39-37.15,30.45-.15.3-.45.47-.76.47ZM160.94,191.87c-.18,5.57-.55,12.04-1.28,12.96-.52.65-4,6.65-7.24,14.34,8.86-11.83,22.56-20.29,31.79-23.46-8.5-4.47-20.23-4.03-23.27-3.83Z"/>
          <g>
            <path class="cls-11" d="M147.28,265.77c-2.18-12.45,2.23-18.7,5.38-18.73,3.15-.02,4.83,1.64,5.49,2.99-4.39,4.68-5.09,14.18-4.7,16.34l-6.17-.61Z"/>
            <path class="cls-14" d="M153.44,267.23c-.4,0-.76-.29-.84-.7-.41-2.24.25-11.54,4.49-16.6-.55-.8-1.88-2.08-4.43-2.04-.74,0-1.6.53-2.36,1.45-.98,1.17-4.02,5.8-2.18,16.28.08.46-.23.9-.69.99-.47.08-.9-.23-.99-.69-1.32-7.56-.37-14.16,2.55-17.66,1.1-1.32,2.4-2.05,3.66-2.06h.07c4.17,0,5.79,2.65,6.19,3.47.16.32.1.7-.14.96-4.23,4.51-4.82,13.75-4.48,15.61.08.46-.22.91-.69.99-.05,0-.1.01-.15.01Z"/>
          </g>
          <path class="cls-5" d="M138.18,244.39c-2.83-1.92-15.89-1.1-16.85.42-4.64,6.29-4.01,18.83-2.16,21.36,1.85,2.53,16.38-.17,17.15-3.17s4.17-17.04,1.85-18.62ZM129.6,261.88c-1.08.67-6.83,1.33-8.08.58-1.83-2.08-1.67-12.82,1.43-14.76,1.15-.66,8-1.72,8.48.16.58,1.33-.75,13.35-1.83,14.02Z"/>
          <path class="cls-14" d="M123.1,268.02c-1.96,0-3.85-.3-4.61-1.35-2-2.74-2.72-15.76,2.16-22.37.21-.34.73-.8,2.71-1.22,3.77-.79,12.67-1.18,15.3.6h0c2.61,1.76.18,13-1.5,19.53-.65,2.52-6.75,3.88-8.6,4.24-.75.14-3.14.57-5.45.57ZM131.07,244.11c-4,0-8.33.54-9.05,1.2-4.51,6.12-3.63,18.34-2.15,20.36.44.61,3.41,1.06,8.37.11,4.67-.9,7.1-2.31,7.28-2.99,2.59-10.09,3.16-17.05,2.2-17.7-1.05-.71-3.75-.99-6.63-.99ZM123.8,263.64c-1.17,0-2.18-.13-2.71-.45-.07-.05-.14-.1-.2-.17-1.4-1.58-1.68-6.33-1.14-10.01.31-2.16,1.05-4.97,2.76-6.04,1.18-.68,6.34-1.55,8.52-.62.83.36,1.13.9,1.23,1.3h0c.38,1.75-.48,13.89-2.21,14.95-.79.49-3.84,1.03-6.25,1.03ZM122.08,261.78c1.11.43,5.93-.06,7-.58.9-1.46,1.98-11.77,1.57-13.01,0-.02-.03-.1-.04-.12-.52-.86-6.06-.29-7.23.37-.85.53-1.59,2.34-1.95,4.82-.53,3.63-.09,7.44.65,8.52ZM129.04,261.25h0Z"/>
          <path class="cls-14" d="M145.65,234.32s-.06,0-.1,0c-.37-.04-.68-.32-.74-.7l-.6-3.29c-.08-.46.22-.91.69-.99.46-.09.91.22.99.69l.09.49,2.47-5.82c.18-.43.69-.63,1.12-.45.43.18.64.68.45,1.12l-3.58,8.45c-.13.32-.45.52-.78.52Z"/>
          <path class="cls-14" d="M170.92,214.04c3.91.98,6.48,5.37,6.48,5.37l-1.04-5.73-5.43.36Z"/>
          <g>
            <g>
              <path class="cls-2" d="M159,173.41c6.27,8.25,20.4,7.62,23.02-8.24,5,3.82,12.03,2.07,11-8.23,8.18,4.86,18.43.21,7.28-11.7,8.43-.46,15.37-13.25,6.5-25.21,4.44.85,9.16-3.92,6.61-9.22-2.55-5.3-8.14-8.82-8.14-8.82,0,0,6.16-6.53-2.96-9.58,4.48-8.63-.93-29.89-25.02-30.96,10.06-8.6-5.24-24.06-23.7-10.01.25-7.72-11.01-14.61-14.27-1.49-13.46-15.91-41.78-5.86-41.78,14.26-18.12-4.72-22.68,10.31-17.06,19.56-13.08-5.54-16.67,4.48-4.77,10.23-5.38.5-13.03,4.24-2.45,8.45-11.23,3.65-19.37,17.57-1.89,25.38-1.15,1.15-7.28,6.98,3.81,9.67-5.61,4.81-4.44,21.13,7.1,14.73h.02s-.02,0-.02,0c0,0-.41,13.83,15.92,10.45l60.8,10.73Z"/>
              <path class="cls-14" d="M159.48,173.04c1.55,2.04,3.73,3.61,6.16,4.39,2.42.79,5.1.78,7.47-.14,2.38-.9,4.37-2.7,5.7-4.91,1.35-2.21,2.1-4.74,2.6-7.31v-.02c.07-.33.39-.55.72-.48.09.02.18.06.25.11,1.17.9,2.56,1.52,3.98,1.68,1.41.15,2.88-.18,3.92-1.12,1.05-.93,1.67-2.3,1.97-3.74.33-1.45.25-2.99.16-4.5v-.02c-.02-.34.23-.62.57-.65.13,0,.25.02.35.08,1.75,1.03,3.74,1.71,5.75,1.8,1.96.11,4.11-.48,5.04-2.07.44-.78.57-1.74.41-2.7-.15-.96-.51-1.91-.98-2.81-.96-1.8-2.26-3.45-3.69-4.98-.23-.25-.22-.63.03-.86.11-.1.24-.15.37-.16h0c2.44-.17,4.74-1.45,6.43-3.27,1.72-1.82,2.81-4.2,3.31-6.66.48-2.47.4-5.07-.32-7.51-.69-2.45-1.91-4.72-3.38-6.8h0c-.19-.29-.13-.67.15-.86.14-.1.31-.13.47-.1,1.92.38,4-.48,5.26-2.01,1.31-1.51,1.66-3.67,1.01-5.56-.71-1.89-1.99-3.68-3.41-5.24-1.43-1.56-3.09-2.98-4.83-4.14-.29-.19-.36-.58-.17-.86.02-.02.04-.05.05-.07.63-.71,1.18-1.59,1.52-2.48.34-.9.45-1.85.17-2.7-.28-.84-.92-1.56-1.71-2.12-.41-.27-.85-.5-1.28-.73l-1.41-.56h0c-.32-.13-.48-.5-.35-.82v-.03c1.58-3.34,1.69-7.34.84-11.01-.83-3.7-2.57-7.19-5.04-10.07-2.46-2.89-5.64-5.12-9.13-6.62-3.53-1.48-7.35-2.07-11.16-2.37h-.02c-.33-.03-.58-.32-.56-.65.01-.17.09-.31.21-.41,1.21-1.03,2.18-2.34,2.65-3.81.51-1.46.38-3.08-.17-4.52-.6-1.43-1.6-2.72-2.86-3.68-1.26-.97-2.74-1.66-4.29-2.08-3.12-.83-6.49-.59-9.6.41-3.13.97-6.02,2.65-8.66,4.62h0c-.27.2-.65.15-.85-.12-.09-.11-.13-.25-.12-.38.06-1.82-.59-3.64-1.68-5.12-1.09-1.47-2.65-2.67-4.39-3.01-.86-.17-1.75-.11-2.56.2-.81.32-1.52.88-2.11,1.56-1.18,1.39-1.86,3.21-2.34,5.05-.09.33-.42.52-.75.44-.12-.03-.22-.09-.3-.18h-.01s-.01-.03-.01-.03c-2.95-3.48-7.02-5.95-11.47-6.96-4.44-1.03-9.17-.7-13.49.76-4.32,1.46-8.27,4.05-11.17,7.56-2.9,3.5-4.53,7.98-4.57,12.53,0,.34-.28.61-.62.61-.05,0-.09,0-.14-.02h0s-.03,0-.03,0c-2.8-.63-5.67-.94-8.44-.56-2.74.41-5.37,1.57-7.13,3.65-1.75,2.05-2.72,4.77-2.76,7.54-.09,2.76.6,5.57,1.96,8.03v.03c.18.29.07.66-.22.82-.17.09-.37.1-.53.03h-.02c-.98-.36-1.97-.7-2.97-.92-.99-.24-2-.43-3-.45-.99-.03-1.98.04-2.84.35-.86.31-1.56.86-1.88,1.58-.33.72-.3,1.63.03,2.49.32.87.87,1.69,1.53,2.43,1.34,1.48,3.06,2.66,4.89,3.64l.03.02c.29.16.4.53.25.82-.1.19-.29.3-.49.32h-.01c-1.31.13-2.62.42-3.86.86-1.21.44-2.47,1.07-3.09,1.98-.28.45-.3.88-.06,1.35.26.47.72.9,1.23,1.28,1.05.74,2.27,1.32,3.52,1.82.31.12.46.48.34.79-.07.17-.21.3-.38.35-2.74.9-5.3,2.4-7.38,4.39-2.06,1.98-3.7,4.51-4.12,7.3-.2,1.38-.08,2.8.38,4.12.45,1.32,1.21,2.54,2.17,3.59,1.93,2.11,4.48,3.64,7.13,4.85h.01c.3.14.44.5.3.8-.03.07-.08.13-.13.18-.84.82-1.58,1.69-2.09,2.66-.49.97-.61,2.02-.12,2.88.48.87,1.46,1.49,2.45,2,.54.21,1.06.44,1.61.62l1.68.48h.02c.32.1.51.44.42.76-.03.12-.1.22-.18.29-1.43,1.26-2.29,3.16-2.72,5.1-.43,1.95-.46,4.02.05,5.91.49,1.87,1.71,3.61,3.54,3.99,1.82.41,3.8-.32,5.55-1.26h0c.15-.09.32-.1.48-.05h.01s-.37,1.16-.37,1.16h-.01s.79-.57.79-.57c.03,1.72.42,3.56,1.19,5.14.77,1.59,1.97,2.94,3.48,3.83,1.54.85,3.3,1.23,5.1,1.36.9.02,1.81-.03,2.71-.07l2.71-.42h.06c.33-.06.64.17.69.5.05.33-.18.64-.51.69h0l-2.84.43c-.96.04-1.93.1-2.89.08-1.93-.13-3.89-.55-5.65-1.52-1.73-1.01-3.11-2.57-3.97-4.35-.21-.45-.39-.91-.56-1.36-.13-.47-.31-.93-.39-1.41-.23-.96-.34-1.9-.35-2.93,0-.33.26-.59.59-.6.06,0,.13,0,.18.03h.02s.01.01.01.01l-.37,1.16h-.01s.48-.05.48-.05c-.96.5-1.94.98-3.03,1.26-1.07.28-2.24.39-3.39.13-1.16-.24-2.2-.95-2.93-1.84-.74-.89-1.21-1.94-1.5-3.01-.57-2.15-.53-4.37-.07-6.5.48-2.11,1.39-4.22,3.12-5.76l.25,1.05-1.78-.51c-.59-.2-1.16-.45-1.74-.68-1.11-.59-2.29-1.27-2.99-2.52-.15-.32-.34-.63-.37-1l-.1-.53.02-.53c.03-.71.28-1.35.56-1.95.6-1.16,1.45-2.13,2.32-2.98l.18.99c-2.75-1.26-5.43-2.84-7.54-5.15-1.04-1.15-1.91-2.5-2.41-4.01-.51-1.5-.65-3.13-.43-4.69.48-3.15,2.28-5.88,4.48-8,2.23-2.12,4.93-3.71,7.85-4.67l-.04,1.14c-1.3-.52-2.59-1.12-3.79-1.97-.59-.44-1.17-.95-1.59-1.69-.19-.39-.33-.83-.31-1.3.03-.47.19-.9.42-1.27.99-1.38,2.38-1.95,3.7-2.47,1.35-.48,2.74-.79,4.16-.93h.01s-.21,1.15-.21,1.15c-1.99-.9-3.92-2.04-5.5-3.69-.79-.82-1.48-1.78-1.91-2.92-.44-1.11-.57-2.5-.02-3.73.54-1.26,1.72-2.05,2.85-2.44,1.16-.39,2.34-.46,3.47-.38,2.27.17,4.38.91,6.36,1.82h.02s-.76.88-.76.88c-1.66-2.56-2.55-5.61-2.54-8.69.02-3.07,1.02-6.24,3.12-8.61,2.08-2.4,5.16-3.75,8.19-4.09,3.06-.36,6.08.13,8.94.93h.03s-.76.59-.76.59c-.08-4.83,1.66-9.66,4.72-13.4,3.04-3.77,7.25-6.47,11.8-7.98,4.55-1.51,9.52-1.83,14.21-.72,4.69,1.09,9.01,3.74,12.1,7.43h.01s-1.05.26-1.05.26c.51-1.94,1.22-3.92,2.6-5.55.69-.8,1.56-1.5,2.59-1.9,1.03-.4,2.17-.47,3.24-.26,2.14.43,3.9,1.82,5.13,3.48,1.23,1.68,1.98,3.75,1.91,5.88l-.98-.5c2.73-2.04,5.74-3.79,9.04-4.82,3.28-1.05,6.88-1.32,10.27-.42,1.69.45,3.31,1.21,4.72,2.29,1.41,1.07,2.56,2.52,3.25,4.19.65,1.68.8,3.62.2,5.34-.56,1.74-1.68,3.22-3.02,4.37l-.37-1.07c3.93.31,7.89.91,11.58,2.46,3.66,1.56,7,3.91,9.59,6.95,2.59,3.03,4.42,6.7,5.3,10.6.89,3.87.82,8.08-.93,11.84l-.35-.86,1.54.61c.49.26.99.52,1.47.84.93.66,1.78,1.57,2.17,2.74.39,1.17.22,2.44-.19,3.5-.42,1.08-1,2.02-1.78,2.89l-.12-.93c1.89,1.26,3.56,2.7,5.08,4.35,1.5,1.66,2.83,3.47,3.67,5.67.37,1.12.5,2.34.28,3.52-.21,1.18-.74,2.3-1.51,3.21-1.52,1.82-4.01,2.88-6.42,2.42l.6-.96c1.55,2.19,2.84,4.6,3.58,7.21.76,2.6.86,5.4.34,8.07-.54,2.66-1.72,5.24-3.61,7.25-1.86,2.01-4.44,3.46-7.26,3.66l.41-1.02c1.47,1.58,2.84,3.29,3.88,5.25.51.98.92,2.05,1.1,3.19.19,1.13.05,2.41-.56,3.49-.62,1.07-1.67,1.83-2.77,2.21-1.1.4-2.25.53-3.38.47-2.25-.11-4.41-.85-6.32-1.97l.92-.58c.1,1.61.18,3.24-.18,4.87-.34,1.61-1.05,3.24-2.37,4.41-1.31,1.19-3.17,1.6-4.85,1.41-1.7-.19-3.27-.92-4.59-1.92l.97-.38c-.52,2.69-1.31,5.37-2.77,7.76-1.44,2.38-3.63,4.39-6.29,5.4-2.64,1.02-5.62,1.03-8.29.16-2.68-.86-5.05-2.58-6.75-4.81-.2-.27-.15-.65.12-.85.27-.2.65-.15.85.12Z"/>
            </g>
            <path class="cls-14" d="M78.35,113.94c-.85-.37-1.71-.86-2.3-1.69-.61-.82-.81-1.9-.7-2.86.12-.97.49-1.85.96-2.64.5-.79,1.06-1.52,2-2.04h0s-.19.79-.19.79c-.91-1.14-1.79-2.36-2.31-3.81-.55-1.42-.77-3.05-.38-4.66.36-1.62,1.64-3.02,3.16-3.63,1.53-.62,3.21-.56,4.63-.03.28.1.42.41.32.69-.09.24-.34.38-.59.34-1.31-.2-2.65-.1-3.72.45-1.09.51-1.89,1.46-2.18,2.62-.33,1.16-.16,2.46.2,3.72.36,1.27,1.06,2.46,1.73,3.67l.03.05c.14.26.05.59-.21.73h-.01s0,0,0,0c-.54.35-1.09,1.02-1.49,1.69-.4.68-.68,1.44-.76,2.18-.09.74.04,1.47.45,2.06.41.59,1.06,1.02,1.77,1.38l.04.02c.26.13.36.46.23.72-.13.25-.43.35-.68.24Z"/>
            <path class="cls-14" d="M190.79,146.35c-1.19,0-2.64-.48-4.12-2.12-.32-.35-.29-.89.06-1.2.35-.31.89-.29,1.2.06,1.37,1.51,2.78,1.93,4.19,1.24,2.04-1,3.39-3.9,3.16-5.19-.04-.23.02-.47.15-.65.14-.19.35-.31.58-.34,2.67-.33,4.5-1.24,5.29-2.63.84-1.47.3-3.06.03-3.68-.19-.43,0-.93.44-1.12.43-.19.93,0,1.12.44.79,1.8.75,3.7-.11,5.21-.99,1.74-2.94,2.87-5.79,3.36-.14,2.1-1.77,4.98-4.13,6.14-.51.25-1.23.5-2.09.5Z"/>
            <path class="cls-14" d="M196.8,103.2c-.27,0-.53-.13-.7-.36-.27-.38-.18-.92.21-1.19,3.07-2.16,4.42-5.29,3.46-7.98-1.04-2.91-4.53-4.49-9.06-4.15-.48.05-.88-.32-.91-.78-.04-.47.32-.88.78-.91,6.38-.48,9.77,2.4,10.8,5.27,1.23,3.43-.37,7.33-4.08,9.95-.15.1-.32.16-.49.16Z"/>
            <path class="cls-1" d="M181.08,136.28c0,8.82-6.34,24.77-11.48,34.66-16.61,31.94-27.31,32.14-37.3,28.06-19.98-7.49-40.71-35.61-40.71-60.34s20.05-44.78,44.78-44.78,44.71,13.61,44.71,42.4Z"/>
            <path class="cls-14" d="M140.21,201.61c-2.76,0-5.48-.69-8.24-1.82-19.45-7.29-41.24-34.99-41.24-61.13s20.47-45.63,45.63-45.63c28.11,0,45.56,16.57,45.56,43.25,0,9.39-6.92,26.1-11.58,35.05-12,23.06-21.24,30.27-30.14,30.27ZM136.36,94.73c-24.22,0-43.92,19.7-43.92,43.92,0,25.46,21.2,52.44,40.15,59.55,9.14,3.73,19.44,4.66,36.25-27.66,5.66-10.88,11.38-26.14,11.38-34.26,0-30.63-22.66-41.55-43.86-41.55Z"/>
            <g>
              <path class="cls-1" d="M98.48,169.47c-2.54,14.18,12.99,10.66,12.99,10.66l-12.99-10.66Z"/>
              <path class="cls-14" d="M107.58,181.38c-2.52,0-5.67-.49-7.82-2.55-2.16-2.07-2.88-5.27-2.12-9.5.08-.46.53-.77.99-.69.46.08.77.53.69.99-.65,3.64-.11,6.32,1.61,7.97,3.38,3.23,10.29,1.73,10.35,1.71.46-.11.91.19,1.02.64s-.18.91-.64,1.02c-.15.03-1.87.41-4.08.41Z"/>
            </g>
            <g>
              <path class="cls-14" d="M92.67,148.77c-6.34,23.75,16.39,29.74,20.89,27,4.5-2.75-10.6-38.3-20.89-27Z"/>
              <path class="cls-14" d="M110.56,177.25c-3.4,0-8.08-1.42-11.92-4.28-4.14-3.1-10.54-10.38-6.79-24.41.04-.13.1-.25.19-.35,2.04-2.24,4.49-2.99,7.09-2.16,7.75,2.48,15.11,18.48,16,25.86.29,2.45-.07,3.95-1.13,4.6-.82.5-2.02.75-3.45.75ZM93.44,149.2c-3.2,12.28,1.6,18.96,6.22,22.4,5.16,3.86,11.52,4.63,13.46,3.44.23-.14.57-.92.32-2.94-.93-7.72-8.24-22.34-14.83-24.44-1.91-.61-3.61-.11-5.17,1.53Z"/>
            </g>
            <g>
              <path class="cls-14" d="M154.03,135.3c12.74,23.98-19.65,38.06-21.73,33.22-9.59-19.07,6.49-43.05,21.73-33.22Z"/>
              <path class="cls-14" d="M134.51,170.32c-.19,0-.38,0-.55-.02-1.57-.14-2.19-.86-2.44-1.44-6.25-12.41-1.94-26.05,5.3-32.55,5.4-4.86,11.85-5.48,17.68-1.72.12.08.22.19.29.32,5.38,10.12,2.66,18.03-.56,22.88-5.19,7.81-14.97,12.54-19.71,12.54ZM146.74,133.89c-3.04,0-6.07,1.24-8.79,3.69-6.86,6.17-10.57,19.29-4.89,30.57.11.26.5.41,1.05.46,3.63.31,13.47-3.89,18.69-11.76,2.95-4.44,5.42-11.66.58-20.94-2.15-1.35-4.4-2.02-6.64-2.02Z"/>
            </g>
            <path class="cls-14" d="M119.33,172.97c1.14,1.42,2.53-.94,1.8-2.68-.73-1.74-2.48,1.83-1.8,2.68Z"/>
            <path class="cls-14" d="M125.36,171.35c-.27,1.8-2.66.46-2.9-1.42-.25-1.87,3.07.34,2.9,1.42Z"/>
            <g>
              <path class="cls-1" d="M101.32,89.73c-12.54-26.5-33.97-35.76-35.72-35.27s-14.83,6.11-17.99-2.51c-2.5-6.82,7.75-9.23,18.48-1.24,27.48,11.38,41.37,36.72,41.37,36.72l-6.15,2.29Z"/>
              <path class="cls-14" d="M101.32,90.58c-.32,0-.62-.18-.77-.49-12.56-26.54-33.15-34.8-34.77-34.8,0,0-.01,0-.02,0-.09.03-.35.12-.69.24-10.03,3.51-16.18,2.4-18.26-3.29-.9-2.46-.37-4.65,1.46-6.01,3.27-2.44,10.58-1.94,18.25,3.73,27.38,11.39,41.55,36.8,41.69,37.06.23.41.07.93-.34,1.16-.41.23-.93.07-1.16-.34-.14-.25-14.07-25.21-40.95-36.34-.06-.03-.13-.06-.18-.1-6.95-5.18-13.59-5.82-16.3-3.8-1.54,1.15-1.32,2.84-.88,4.06,2.56,7,12.75,3.43,16.1,2.27.38-.13.67-.23.85-.29,2.72-.78,24.4,9.68,36.72,35.72.2.43.02.93-.41,1.13-.12.06-.24.08-.36.08Z"/>
            </g>
            <g>
              <path class="cls-1" d="M147.16,82.98c9.21-27.84.09-49.33-1.52-50.17s-14.95-5.81-11.29-14.22c2.9-6.66,11.98-1.34,14.24,11.86,12.04,27.2,4.61,55.12,4.61,55.12l-6.03-2.58Z"/>
              <path class="cls-14" d="M153.19,86.41c-.07,0-.15,0-.22-.03-.45-.12-.73-.59-.6-1.04.07-.28,7.21-27.96-4.56-54.56-.03-.06-.05-.13-.06-.2-1.46-8.55-5.82-13.59-9.18-13.99-1.89-.22-2.92,1.14-3.44,2.34-2.97,6.83,6.86,11.28,10.09,12.75.37.17.65.29.81.38,2.52,1.32,10.98,23.85,1.94,51.19-.15.45-.63.69-1.08.54-.45-.15-.69-.63-.54-1.08,9.26-28-.07-48.24-1.17-49.19-.09-.04-.34-.15-.66-.3-9.68-4.38-13.37-9.42-10.95-14.98,1.04-2.4,2.94-3.62,5.2-3.35,4.05.49,9,5.9,10.63,15.29,11.96,27.13,4.68,55.31,4.61,55.59-.1.38-.45.63-.82.63Z"/>
            </g>
            <path class="cls-3" d="M96.24,149.63c-1.87,3.56,5.41,6.96,8.41,6.33,3-.63-5.83-11.24-8.41-6.33Z"/>
            <path class="cls-3" d="M142.28,138.13c-2.14,4.05,10.43,6.45,11.66,5.18,2.32-2.39-8.42-11.32-11.66-5.18Z"/>
            <path class="cls-2" d="M162.14,85.95c-5.12-6.4-12.11-1.1-12.11-1.1,0,0-2.19-5.68-8.93-3,0,0,.5,4.81,8.43,6.43,7.93,1.62,12.61-2.33,12.61-2.33Z"/>
            <path class="cls-14" d="M162.15,86.8c-.25,0-.5-.11-.67-.32-4.53-5.66-10.68-1.15-10.94-.96-.21.16-.49.21-.75.14-.26-.07-.46-.26-.56-.51,0-.02-.78-1.93-2.72-2.77-1.41-.61-3.13-.52-5.1.26-.44.18-.93-.04-1.11-.48-.17-.44.04-.93.48-1.11,2.41-.96,4.58-1.04,6.43-.23,1.63.71,2.62,1.95,3.14,2.8,2.14-1.25,7.97-3.82,12.46,1.79.29.37.23.9-.13,1.2-.16.13-.34.19-.53.19Z"/>
            <path class="cls-2" d="M93.08,91.59c2.5-6,12.16-2.83,12.16-2.83,0,0,.83-3.83,5.16-4.66,4.33-.83,1.75,4.41-5.16,7.49-6.91,3.08-12.94,1.34-12.16,0Z"/>
            <path class="cls-14" d="M93.08,92.44c-.11,0-.22-.02-.33-.07-.43-.18-.64-.68-.46-1.11,2.34-5.62,9.88-4.2,12.39-3.55.54-1.33,2.01-3.77,5.55-4.46.47-.08.91.21,1,.68.09.46-.21.91-.68,1-3.7.71-4.46,3.88-4.49,4.01-.05.23-.2.44-.41.55-.21.12-.46.14-.68.07-.09-.03-8.94-2.85-11.11,2.35-.14.33-.45.52-.79.52Z"/>
            <g>
              <g>
                <path class="cls-13" d="M118.52,170.43c.23,7.56-5.71,13.87-13.27,14.1-7.56.23-13.87-5.71-14.1-13.27-.23-7.56,5.71-13.87,13.27-14.1,7.56-.23,13.87,5.71,14.1,13.27Z"/>
                <path class="cls-12" d="M118.52,170.43c.23,7.56-5.71,13.87-13.27,14.1-7.56.23-13.87-5.71-14.1-13.27-.23-7.56,5.71-13.87,13.27-14.1,7.56-.23,13.87,5.71,14.1,13.27Z"/>
                <path class="cls-3" d="M104.42,157.15c-6.82.21-12.3,5.36-13.15,11.92,1.58-5.04,6.2-8.76,11.78-8.93,7.04-.21,12.92,5.33,13.14,12.37.13,4.17-1.78,7.93-4.81,10.35,4.38-2.39,7.3-7.09,7.14-12.43-.23-7.56-6.54-13.5-14.1-13.27Z"/>
                <path class="cls-14" d="M104.83,185.38c-7.82,0-14.29-6.24-14.53-14.11-.24-8.02,6.08-14.73,14.1-14.97,3.87-.12,7.58,1.29,10.41,3.95,2.83,2.66,4.45,6.27,4.57,10.15.24,8.01-6.08,14.73-14.1,14.97-.15,0-.3,0-.44,0ZM104.84,158c-.13,0-.26,0-.4,0-7.08.21-12.66,6.14-12.45,13.22.21,7.08,6.14,12.64,13.22,12.45,7.08-.21,12.66-6.14,12.45-13.22-.1-3.43-1.54-6.61-4.03-8.96-2.4-2.26-5.51-3.49-8.79-3.49Z"/>
              </g>
              <g>
                <path class="cls-13" d="M151.53,162.27c.23,7.56-5.71,13.87-13.27,14.1-7.56.23-13.87-5.71-14.1-13.27-.23-7.56,5.71-13.87,13.27-14.1,7.56-.23,13.87,5.71,14.1,13.27Z"/>
                <path class="cls-12" d="M151.53,162.27c.23,7.56-5.71,13.87-13.27,14.1-7.56.23-13.87-5.71-14.1-13.27-.23-7.56,5.71-13.87,13.27-14.1,7.56-.23,13.87,5.71,14.1,13.27Z"/>
                <path class="cls-3" d="M137.44,149.11c-7.49.23-13.39,6.48-13.16,13.98,0,.23.04.45.05.67.46-6.31,5.63-11.38,12.09-11.57,6.9-.21,12.66,5.22,12.87,12.12.12,4.11-1.76,7.81-4.76,10.18,4.24-2.4,7.04-7.01,6.88-12.22-.23-7.49-6.48-13.39-13.98-13.16Z"/>
                <path class="cls-14" d="M137.84,177.22c-3.72,0-7.24-1.39-9.96-3.95-2.83-2.66-4.45-6.27-4.57-10.15-.24-8.01,6.08-14.73,14.1-14.97,7.99-.25,14.73,6.08,14.97,14.1.24,8.02-6.08,14.73-14.1,14.97-.15,0-.3,0-.45,0ZM137.85,149.84c-.13,0-.26,0-.39,0-7.08.21-12.66,6.14-12.45,13.22.1,3.43,1.54,6.61,4.03,8.96,2.5,2.35,5.74,3.58,9.19,3.49,7.08-.21,12.66-6.14,12.45-13.22-.21-6.94-5.93-12.45-12.83-12.45Z"/>
              </g>
              <path class="cls-14" d="M112.34,160.24c-.06,0-.11,0-.17-.02-.46-.09-.76-.55-.66-1.01.63-3.06,2.76-5.36,5.69-6.16,3.19-.87,6.66.24,9.06,2.89.32.35.29.89-.06,1.2-.35.32-.89.29-1.2-.06-1.97-2.17-4.78-3.09-7.35-2.39-2.3.63-3.98,2.45-4.47,4.86-.08.4-.44.68-.83.68Z"/>
            </g>
            <path class="cls-14" d="M135.39,25.96c9.28,6.4,13.19,4.48,13.19,4.48l2.27,5.78-1.74,4.97-3.48-8.39s-9.73-6.1-10.24-6.85Z"/>
            <path class="cls-14" d="M125.27,185.5c-2.71,0-5.6-1.25-8.25-3.67-.35-.32-.37-.86-.06-1.2.32-.35.85-.37,1.2-.06,5.04,4.59,8.95,3.18,10.4,2.35,2.02-1.15,3.27-3.35,2.91-5.11-.09-.46.2-.91.66-1.01.46-.1.91.2,1.01.66.51,2.5-1.06,5.41-3.74,6.94-1.29.73-2.69,1.09-4.14,1.09Z"/>
            <path class="cls-14" d="M132.48,178.41c-1.19,0-2.47-.36-3.65-1.38-.36-.31-.39-.85-.09-1.2.31-.36.84-.4,1.2-.09,2.52,2.18,5.41.06,5.53-.04.38-.28.91-.21,1.19.17.28.38.21.91-.17,1.19-.83.62-2.34,1.35-4.03,1.35Z"/>
            <path class="cls-2" d="M84.55,117.33c-5.49,13.66,5.66,15.69,14.82,4.5,1.23,11.2,11.02,11.2,14.15-3,.5,1.83,5.65,9.16,8.91-1.33-.08,7.49,8.74,11.32,14.36-.17.79,2.83,5.24,6.99,10.47-1.33-1.06,5.16,3,17.55,17.99,9.49-1.61,11.66,9.05,10.53,9.05,10.53,0,0-9.83,3.82-4.5,12.97-6.99.82-10.82,9.14-4.55,11.81-6.27,4.83-6.42,15.57,1.57,17.04,0,0,12.47-12.38,16.47-42.85,4-30.47-27.78-44.64-47.31-45.8-22.8-1.35-45.45,18.48-51.44,28.14Z"/>
            <path class="cls-14" d="M165.46,178.67c-1.75-.65-3.36-1.85-4.33-3.5-.98-1.63-1.37-3.55-1.27-5.39.19-3.72,2.14-7.2,5.05-9.46l.13,1.03c-1.41-.61-2.82-1.74-3.29-3.37-.49-1.6-.14-3.28.59-4.65,1.48-2.77,4.37-4.56,7.42-4.95l-.45.9c-.3-.62-.64-1.23-.91-1.87l-.33-1-.16-.5-.09-.53c-.32-1.38-.16-2.89.34-4.23.51-1.35,1.39-2.52,2.43-3.46,1.06-.94,2.2-1.69,3.53-2.25l.28,1.16c-1.49.1-2.91-.07-4.31-.5-1.39-.44-2.72-1.24-3.67-2.41-.94-1.16-1.53-2.59-1.73-4.02-.13-.72-.1-1.44-.16-2.15l.17-2.12.88.61c-1.03.47-2.03,1.01-3.09,1.42-1.08.36-2.14.81-3.29.97-2.23.47-4.71.48-6.89-.57-2.18-1.03-3.78-2.97-4.7-5.1-.93-2.14-1.29-4.5-.9-6.87l1.1.44-1.04,1.5c-.41.46-.75.97-1.21,1.4-.84.9-1.91,1.68-3.19,2.08-.63.21-1.34.24-2.02.14-.67-.14-1.32-.39-1.86-.79-1.1-.77-1.86-1.89-2.25-3.16l1.12.1v.02c-.87,1.66-1.76,3.36-3.13,4.73-1.32,1.38-3.02,2.59-5.08,2.88-.5.12-1.03.05-1.54.02-.51-.06-1.02-.23-1.5-.39-.45-.25-.95-.42-1.33-.78l-.6-.48-.5-.57c-1.32-1.56-1.88-3.6-1.81-5.54l1.18.19v.02c-.37,1.13-.79,2.27-1.41,3.34-.31.53-.68,1.05-1.15,1.52-.46.46-1.08.86-1.8,1.01-.72.15-1.47.01-2.07-.28-.61-.29-1.13-.69-1.58-1.13-.45-.44-.84-.93-1.19-1.44-.34-.53-.66-1.03-.87-1.73l1.17-.03h0c-.42,2.15-1.01,4.28-2.03,6.27-1,1.96-2.41,3.92-4.65,4.97-1.1.52-2.47.65-3.69.26-1.22-.39-2.21-1.22-2.9-2.18-1.4-1.93-1.88-4.2-2.07-6.38l1.07.32h0c-1.47,1.94-3.19,3.74-5.23,5.18-2.03,1.39-4.4,2.63-7.16,2.51-1.35-.05-2.82-.61-3.77-1.73-.49-.54-.8-1.19-1.03-1.84-.19-.66-.32-1.32-.34-1.97-.09-2.63.8-5.01,1.91-7.16.09-.17.3-.24.48-.15.15.08.22.25.18.41h0c-.61,2.29-1.14,4.61-.95,6.79.08,1.08.42,2.09,1.04,2.8.62.72,1.55,1.1,2.58,1.14,1.03.07,2.11-.19,3.15-.58,1.04-.38,2.05-.92,3.01-1.54,1.9-1.28,3.63-2.87,5.2-4.61h0c.21-.26.58-.3.84-.1.12.1.19.23.22.37v.04c.33,2.03.92,4.06,2.1,5.58.58.75,1.32,1.34,2.15,1.59.83.25,1.72.16,2.56-.22,1.7-.74,3-2.43,3.97-4.2.49-.89.91-1.84,1.26-2.82.38-.97.66-1.97.94-2.99h0c.08-.34.41-.54.73-.46.21.05.36.2.43.39v.03c.31.89,1.01,1.89,1.75,2.62.75.74,1.71,1.29,2.57,1.09.87-.16,1.6-1.03,2.15-1.95.55-.94.95-2.01,1.29-3.09v-.02c.11-.32.44-.5.76-.4.26.08.42.31.42.57h0c.02,1.73.56,3.42,1.63,4.66l.41.46.48.37c.3.28.69.39,1.04.59.75.25,1.54.39,2.34.26,1.6-.2,3.09-1.18,4.29-2.41,1.24-1.22,2.13-2.79,3.01-4.33v-.02s.02-.01.02-.01c.16-.29.53-.4.83-.24.14.08.24.21.29.35.3.97.94,1.92,1.79,2.5.83.62,1.87.78,2.85.48.98-.31,1.9-.95,2.66-1.77.41-.38.73-.86,1.11-1.28l.98-1.42c.19-.28.57-.35.84-.16.2.14.29.37.26.6-.33,2.01-.02,4.23.83,6.15.83,1.92,2.24,3.61,4.11,4.49,1.86.91,4.07.92,6.14.48,1.06-.15,2.06-.58,3.08-.91,1.01-.39,1.97-.91,2.96-1.36h0c.31-.14.68,0,.82.31.04.1.06.21.05.31l-.16,1.98c.06.65.02,1.31.14,1.94.18,1.28.69,2.47,1.47,3.44.79.97,1.9,1.64,3.12,2.03,1.21.38,2.57.54,3.81.45.33-.02.62.23.65.56.02.26-.14.5-.37.6-1.12.48-2.23,1.19-3.15,2.02-.93.84-1.69,1.85-2.11,2.99-.42,1.13-.56,2.38-.28,3.59l.07.46.15.45.3.89c.25.58.56,1.14.83,1.71l.02.04c.14.3.02.66-.28.81-.06.03-.12.05-.19.05-2.68.33-5.23,1.94-6.49,4.31-.62,1.17-.87,2.53-.51,3.72.34,1.22,1.41,2.09,2.61,2.62h0c.31.14.44.49.31.8-.04.09-.11.17-.18.23-2.64,2.05-4.41,5.24-4.58,8.56-.08,1.65.26,3.32,1.1,4.71.82,1.4,2.18,2.42,3.72,2.99.31.12.47.46.36.77-.12.31-.46.47-.77.36Z"/>
          </g>
          <g>
            <path class="cls-10" d="M192.09,225.03c3.54-3.11,4.7-6.44,4.7-6.44l-4.7,6.44Z"/>
            <path class="cls-14" d="M192.09,225.88c-.24,0-.47-.1-.64-.29-.31-.35-.28-.89.08-1.2,3.33-2.93,4.44-6.05,4.45-6.08.15-.44.64-.68,1.08-.53.44.15.68.64.53,1.08-.05.14-1.27,3.58-4.94,6.81-.16.14-.36.21-.56.21Z"/>
          </g>
          <g>
            <path class="cls-10" d="M159,204.29c2.66-3.36,3.83-4.36,3.83-4.36l-3.83,4.36Z"/>
            <path class="cls-14" d="M159,205.15c-.18,0-.37-.06-.53-.18-.37-.29-.43-.83-.14-1.2,2.68-3.39,3.89-4.44,3.94-4.48.36-.31.89-.27,1.2.09.31.36.26.89-.09,1.2,0,0-1.16,1.02-3.71,4.25-.17.21-.42.32-.67.32Z"/>
          </g>
          <path class="cls-14" d="M164.82,126.58c-.3,0-.59-.16-.75-.44-.23-.41-.08-.93.33-1.16,1.89-1.05,3.89-2.9,4.67-4.02.27-.39.8-.48,1.19-.21.38.27.48.8.21,1.19-1.05,1.5-3.3,3.45-5.24,4.53-.13.07-.27.11-.41.11Z"/>
          <path class="cls-14" d="M122.13,119.28c-.06,0-.13,0-.19-.02-.46-.11-.74-.56-.64-1.02.37-1.59.64-3.23.79-4.87.04-.47.46-.81.93-.77.47.04.81.46.77.93-.16,1.71-.43,3.43-.82,5.1-.09.39-.44.66-.83.66Z"/>
        </g>
      </g>
    </g>
  </g>
</svg>