<?xml version="1.0" encoding="UTF-8"?>
<svg id="Layer_1" data-name="Layer 1" xmlns="http://www.w3.org/2000/svg" viewBox="0 0 235.91 153.19">
  <defs>
    <style>
      .cls-1 {
        fill: #fab72d;
      }

      .cls-2 {
        fill: #0e2244;
      }

      .cls-3 {
        fill: #f2740c;
        stroke: #fff;
        stroke-miterlimit: 10;
        stroke-width: 2px;
      }
    </style>
  </defs>
  <path class="cls-3" d="M44.82,33.17c-16.11,17.49,12.19,33.87,30.29,46.42,18.1,12.55,29.57,29.19,32.41,30.14,2.83.95-1.8-9.1-.67-11.71,1.12-2.62,24.19,30.77,29.51,33.82s-8.56-37.45-9.83-41.35c-1.28-3.91,8.6,3.66,10.86,1.38,2.26-2.27-29.36-50.29-45.78-62.78-18.68-14.2-38.5-4.91-46.78,4.08Z"/>
  <g>
    <path class="cls-1" d="M48.04,47.31c.78,8.66,24.25,22.44,33.28,20.9,16.11-2.74,13.64-27.53,7.96-34.6-9.18-11.43-42.75-2.98-41.24,13.7Z"/>
    <path class="cls-2" d="M79.78,69.16c-6.47,0-16.83-5.05-23.86-10.45-3.08-2.37-8.31-7-8.7-11.32h0c-.63-6.95,4.53-13.33,13.79-17.07,9.77-3.94,23.22-4.31,28.91,2.78,4.03,5.02,6.17,17.56,2.89,26.21-2.07,5.45-5.99,8.81-11.35,9.72-.52.09-1.09.13-1.68.13ZM75.16,29.2c-4.52,0-9.35.97-13.53,2.65-8.56,3.45-13.33,9.21-12.77,15.39.25,2.7,3.19,6.4,8.07,10.16,8.29,6.38,19.18,10.86,24.26,10,4.82-.82,8.21-3.74,10.09-8.68,3.04-8.02,1.05-20.01-2.63-24.59-2.77-3.45-7.89-4.93-13.48-4.93Z"/>
  </g>
  <path class="cls-2" d="M66.64,52.91c-.06,0-.12,0-.17,0-2.98-.05-6.1-1.42-8.78-2.69-.41-.2-.58-.69-.39-1.1.19-.41.68-.59,1.1-.39,2.53,1.2,5.45,2.49,8.1,2.54,1.31.02,2.15-.24,2.64-.82.99-1.16.55-3.67.12-6.09-.46-2.64-.9-5.12.21-6.75,1.5-2.19,3.53-2.43,5.49-2.67,1.6-.19,3.26-.39,4.87-1.64,1.96-1.52,2.67-2.49,2.92-2.99-8.08-2.68-20.36-.4-27.78,5.25-3.05,2.32-6.59,6.23-6.09,11.67.03.32.09.65.2,1,.2-.61.5-1.07.91-1.4.76-.62,1.82-.73,3.23-.33.44.12.7.57.57,1.01-.12.44-.57.7-1.01.57-.86-.24-1.45-.23-1.76.03-.26.21-.69.9-.54,3.07.02.37-.21.71-.56.83-.35.12-.74-.01-.95-.32-1.03-1.55-1.61-3-1.73-4.3-.44-4.9,1.89-9.44,6.74-13.13,8.02-6.1,21.49-8.46,30.02-5.25.24.09.42.29.5.53.21.68,0,2.24-3.65,5.07-1.97,1.52-3.94,1.76-5.68,1.97-1.82.22-3.25.39-4.33,1.96-.73,1.07-.33,3.34.05,5.53.5,2.8,1.01,5.7-.49,7.45-.8.94-2.03,1.4-3.74,1.4Z"/>
  <path class="cls-2" d="M79.78,69.16c-5.09,0-12.28-3.14-17.7-6.32-.31-.18-.47-.55-.38-.9.69-2.9,1.87-4.77,3.62-5.7,2.93-1.57,6.78-.15,10.86,1.35.92.34,1.84.68,2.78.99.43.14.66.61.52,1.04-.15.43-.61.66-1.04.52-.95-.32-1.89-.67-2.82-1.01-3.72-1.37-7.23-2.67-9.51-1.44-1.2.64-2.06,1.97-2.64,4.05,7.09,4.09,14.01,6.31,17.74,5.67,7.03-1.2,9.83-6.71,10.92-11.48-1.05,1.35-2.47,2.83-4.23,3.87-.39.23-.9.1-1.13-.29s-.1-.9.29-1.13c3.6-2.12,5.7-6.5,5.72-6.54.17-.36.57-.55.96-.44.38.1.64.46.61.86-.76,9.4-5.45,15.52-12.86,16.78-.53.09-1.09.13-1.69.13Z"/>
  <path class="cls-2" d="M83.46,56.17c-1.72,0-3.55-1.05-5.24-3.07-3.05-3.66-4.72-9.46-2.23-11.91,1.46-1.44,3.5-1.98,5.47-2.51,3.39-.91,6.07-1.62,5.97-6.15-.01-.45.35-.83.8-.84.45-.05.83.35.84.8.13,5.82-3.76,6.86-7.19,7.78-1.85.49-3.6.96-4.74,2.09-1.59,1.57-.43,6.37,2.34,9.69.92,1.1,3.3,3.51,5.47,1.98,4.96-3.48,7.4-10.34,7.42-10.41.15-.43.62-.65,1.05-.51.43.15.66.62.5,1.05-.11.3-2.64,7.44-8.03,11.22-.76.53-1.59.79-2.44.79Z"/>
  <path class="cls-2" d="M62.99,47.23c-.12,0-.25,0-.38-.02-2.85-.25-4.17-2.45-5.33-4.39-1.46-2.44-2.62-4.37-6.3-3.54-.45.1-.88-.18-.98-.62-.1-.44.18-.88.62-.98,4.84-1.09,6.63,1.9,8.07,4.3,1.1,1.83,2.04,3.41,4.06,3.59.67.06,1.4-.05,1.64-1.37.61-3.37-2.71-10.08-6.13-11.03-.44-.12-.69-.57-.57-1.01.12-.44.57-.69,1.01-.57,4.65,1.29,8,9.1,7.31,12.91-.32,1.75-1.41,2.73-3.02,2.73Z"/>
</svg>