<?xml version="1.0" encoding="UTF-8"?>
<svg id="Layer_1" data-name="Layer 1" xmlns="http://www.w3.org/2000/svg" viewBox="0 0 211.4 173.11">
  <defs>
    <style>
      .cls-1 {
        fill: #fff;
      }

      .cls-2 {
        fill: #fab72d;
      }

      .cls-3 {
        fill: #a4a2e0;
      }

      .cls-4 {
        fill: #de62ae;
      }

      .cls-5 {
        fill: #0e2244;
      }
    </style>
  </defs>
  <path class="cls-3" d="M115.4,49.97c-3.96-30.69-35.55-38.24-42.88-11.81-6.88,24.81,26.42,61.85,26.42,61.85,0,0,48.79-10.03,57.98-34.08,9.79-25.63-23.03-37.98-41.52-15.96Z"/>
  <g>
    <path class="cls-2" d="M111.92,60.56c-2.75-17.55-21.87-22.23-25.98-7.24-3.85,14.07,16.65,35.59,16.65,35.59,0,0,29.28-5.14,34.53-18.75,5.6-14.5-14.32-21.94-25.2-9.59Z"/>
    <path class="cls-5" d="M102.59,89.76c-.23,0-.45-.09-.62-.26-.85-.89-20.79-22.03-16.86-36.4,1.73-6.33,6.2-9.92,11.96-9.59,6.19.35,13.22,5.68,15.37,15.28,6.55-6.32,15.47-6.44,20.9-3.14,5.14,3.12,6.89,8.8,4.57,14.83-5.36,13.9-33.96,19.07-35.17,19.29-.05,0-.1.01-.15.01ZM96.39,45.19c-4.61,0-8.18,3.08-9.63,8.36-3.43,12.51,13.59,31.67,16.14,34.44,3.69-.72,28.76-6.03,33.43-18.14,2.04-5.28.6-10.05-3.86-12.76-5.17-3.13-13.9-2.79-19.91,4.03-.22.25-.56.35-.88.25-.32-.09-.55-.36-.6-.69-1.53-9.74-8.25-15.16-14.09-15.49-.2-.01-.4-.02-.59-.02Z"/>
  </g>
  <path class="cls-5" d="M98.94,100.86c-.24,0-.47-.1-.63-.28-1.37-1.53-33.54-37.67-26.61-62.64,3.04-10.97,10.76-17.38,20.19-16.7,9.71.69,21.16,9.37,24.09,26.8,10.78-11.65,25.26-12.53,34.36-7.18,6.74,3.96,12.22,12.71,7.38,25.38-9.25,24.21-56.59,34.2-58.6,34.61-.06.01-.12.02-.17.02ZM90.51,22.88c-8.09,0-14.45,5.71-17.17,15.51-6.32,22.77,22.5,56.76,25.91,60.68,5.07-1.13,48.44-11.37,56.87-33.45,3.79-9.92,1.3-18.63-6.65-23.31-8.83-5.19-23.14-4.04-33.42,8.2-.22.26-.57.36-.89.27-.32-.1-.56-.37-.61-.71-2.28-17.7-13.42-26.48-22.79-27.15-.42-.03-.84-.04-1.25-.04Z"/>
  <path class="cls-5" d="M136.17,78.65c-6.86,0-14.22-.23-21.83-.68-14.57-.86-28.55-2.49-39.37-4.57-2.2-.43-4.13-.85-5.9-1.27-8.11-1.93-12.1-4.21-12.2-6.97-.09-2.66,3.28-4.29,10.93-5.31.47-.06.89.27.96.73.06.47-.27.89-.73.96-8.29,1.1-9.48,2.7-9.45,3.56.02.65.88,2.98,10.89,5.37,1.75.42,3.66.83,5.83,1.26,10.74,2.07,24.65,3.69,39.15,4.55,12.8.76,24.92.88,35.03.35,2.68-.14,5.03-.32,7.19-.53,12.46-1.23,13-3.65,12.98-4.12-.02-.66-1.33-2.49-12.92-5.21-.46-.11-.74-.57-.63-1.02.11-.46.56-.74,1.02-.63,10.02,2.36,14.15,4.33,14.24,6.81.11,2.98-4.64,4.9-14.52,5.88-2.18.22-4.56.4-7.27.54-4.16.22-8.65.33-13.39.33Z"/>
  <g>
    <path class="cls-4" d="M148.06,78.09c-.92.82-1.88,1.63-2.88,2.41,5.37,4.35,6.96,7.03,6.02,8.71-.98,1.75-4.59,2.11-11.9-.04-1.62-.48-3.35-1.03-5.2-1.66-9.08-3.15-20.7-8.2-33.01-14.56-10.79-5.57-20.41-11.26-27.84-16.3-1.98-1.35-3.81-2.64-5.45-3.89-7.12-5.36-9.65-8.96-8.57-10.89,1.01-1.8,4.97-1.85,12.51.39.12-1.21.33-2.4.63-3.56-13.85-4.38-23.67-5.31-25.69-1.72-2.23,3.99,5.71,12.64,19.65,22.54,3.22,2.28,6.75,4.64,10.55,7.02,6.36,3.98,13.47,8.03,21.1,11.96,9.92,5.12,19.55,9.43,28.2,12.76,2.8,1.07,5.51,2.04,8.09,2.9,15.1,5.04,25.96,6.3,28.09,2.5,1.93-3.45-3.73-10.38-14.3-18.58Z"/>
    <path class="cls-5" d="M156,99.73c-6.49,0-15.73-2.66-21.99-4.75-2.54-.85-5.28-1.83-8.12-2.91-8.96-3.44-18.74-7.87-28.29-12.8-7.46-3.85-14.58-7.89-21.16-12-3.74-2.34-7.3-4.71-10.59-7.05-8.85-6.29-23.21-17.73-19.9-23.65,2.8-5,16.06-2.04,26.69,1.32.43.14.68.59.57,1.02-.28,1.09-.48,2.24-.61,3.44-.03.25-.16.48-.37.62-.21.14-.47.18-.72.11-9.53-2.84-11.23-1.32-11.53-.79-.33.58-.69,3.01,8.34,9.8,1.6,1.21,3.37,2.47,5.42,3.87,7.73,5.25,17.33,10.87,27.75,16.25,11.81,6.1,23.49,11.25,32.9,14.51,1.87.64,3.6,1.2,5.16,1.65,8.89,2.61,10.6,1,10.91.44.42-.75.22-2.75-5.81-7.64-.2-.16-.32-.41-.32-.67,0-.26.12-.5.33-.66,1-.78,1.95-1.58,2.83-2.37.31-.28.77-.29,1.09-.04,8.12,6.3,17.23,14.83,14.52,19.67-1.07,1.92-3.71,2.64-7.11,2.64ZM53.07,35.63c-3.26,0-5.04.72-5.63,1.77-1.41,2.52,2.82,9.65,19.4,21.43,3.26,2.32,6.8,4.67,10.51,7,6.53,4.08,13.61,8.1,21.04,11.93,9.49,4.9,19.21,9.3,28.12,12.72,2.82,1.08,5.53,2.05,8.05,2.89,17.83,5.95,25.67,5.4,27.07,2.89,1.22-2.18-1.72-7.79-13.52-17.06-.5.44-1.02.88-1.56,1.31,4.93,4.14,6.61,6.97,5.41,9.12-1.32,2.37-5.66,2.49-12.88.37-1.58-.46-3.34-1.03-5.23-1.68-9.48-3.29-21.24-8.47-33.12-14.6-10.49-5.41-20.14-11.07-27.93-16.35-2.08-1.41-3.87-2.69-5.49-3.91-7.34-5.53-10.22-9.45-8.8-11.99,1.26-2.26,5.25-2.35,12.53-.29.09-.64.2-1.27.34-1.89-8.5-2.64-14.44-3.65-18.3-3.65Z"/>
  </g>
  <g>
    <path class="cls-1" d="M85.49,36.6c0-6.56-3.96-13.53-10.12-14.35,6.15-.82,10.12-7.79,10.12-14.35,0,6.56,3.96,13.53,10.12,14.35-6.15.82-10.12,7.79-10.12,14.35Z"/>
    <path class="cls-5" d="M85.49,37.45c-.47,0-.85-.38-.85-.85,0-5.9-3.58-12.74-9.38-13.51-.42-.06-.74-.42-.74-.84s.32-.79.74-.84c5.79-.77,9.38-7.61,9.38-13.51,0-.47.38-.85.85-.85s.85.38.85.85c0,5.9,3.59,12.74,9.38,13.51.42.06.74.42.74.84s-.32.79-.74.84c-5.79.77-9.38,7.61-9.38,13.51,0,.47-.38.85-.85.85ZM78.38,22.24c3.44,1.59,5.9,5.04,7.1,8.89,1.21-3.85,3.66-7.3,7.11-8.89-3.44-1.59-5.9-5.04-7.11-8.89-1.21,3.85-3.66,7.3-7.1,8.89Z"/>
  </g>
  <g>
    <path class="cls-1" d="M153.4,111.72c0-4.5-2.72-9.28-6.94-9.85,4.22-.56,6.94-5.34,6.94-9.85,0,4.5,2.72,9.28,6.94,9.85-4.22.56-6.94,5.35-6.94,9.85Z"/>
    <path class="cls-5" d="M153.4,112.57c-.47,0-.85-.38-.85-.85,0-3.93-2.37-8.49-6.2-9-.42-.06-.74-.42-.74-.84s.32-.79.74-.84c3.83-.51,6.2-5.07,6.2-9,0-.47.38-.85.85-.85s.85.38.85.85c0,3.93,2.37,8.49,6.2,9,.42.06.74.42.74.84s-.32.79-.74.84c-3.83.51-6.2,5.07-6.2,9,0,.47-.38.85-.85.85ZM149.11,101.87c1.97,1.09,3.43,3.06,4.28,5.29.85-2.23,2.32-4.2,4.28-5.29-1.97-1.09-3.43-3.06-4.28-5.29-.85,2.23-2.32,4.2-4.28,5.29Z"/>
  </g>
  <path class="cls-5" d="M69.84,71.71c-.52,1.58-2.22,2.43-3.79,1.91-1.58-.52-2.43-2.22-1.91-3.79.52-1.58,2.22-2.43,3.79-1.91,1.58.52,2.43,2.22,1.91,3.79Z"/>
</svg>