<?xml version="1.0" encoding="UTF-8"?>
<svg id="Layer_1" data-name="Layer 1" xmlns="http://www.w3.org/2000/svg" viewBox="0 0 255.83 204.51">
  <defs>
    <style>
      .cls-1 {
        fill: #fff;
      }

      .cls-2 {
        fill: #fcd9c8;
      }

      .cls-3 {
        fill: #fab72d;
      }

      .cls-4 {
        fill: #a4a2e0;
      }

      .cls-5 {
        fill: #de62ae;
      }

      .cls-6 {
        fill: #0e2244;
      }
    </style>
  </defs>
  <g>
    <path class="cls-1" d="M201.28,56.49c1.36,1.72,2.65,3.52,3.86,5.4,1.19,1.86,2.28,3.75,3.26,5.68-2.94,3.1-6.3,6.3-9.99,9.56-2.54-5.23-5.54-10.25-8.99-14.92,4.18-2.14,8.16-4.06,11.86-5.71Z"/>
    <path class="cls-4" d="M189.67,45.02c4.26,3.27,8.17,7.1,11.62,11.47-3.71,1.64-7.69,3.56-11.86,5.71-3.91-5.31-8.4-10.18-13.4-14.38,4.64-1.3,9.21-2.24,13.65-2.79Z"/>
    <path class="cls-2" d="M208.4,67.57c2.37,4.62,4.15,9.42,5.36,14.3-2.43,4.44-5.39,8.78-8.78,12.99-1.59-6.03-3.8-12.01-6.57-17.73,3.68-3.25,7.04-6.46,9.99-9.56Z"/>
    <path class="cls-4" d="M189.42,62.2c3.45,4.67,6.46,9.69,8.99,14.92-4.7,4.13-9.93,8.36-15.51,12.57-3.17-6.21-6.86-12.27-10.95-17.94,6.06-3.5,11.94-6.72,17.47-9.55Z"/>
    <path class="cls-1" d="M189.67,45.02c-4.44.55-9.01,1.5-13.65,2.79-6.13-5.17-13.06-9.36-20.67-12.18,3.83-.92,7.7-1.57,11.58-1.97,8.16,2.27,15.9,6.09,22.74,11.36Z"/>
    <path class="cls-4" d="M213.76,81.87c2.15,8.68,2.5,17.63,1.14,26.29-2.05,3.52-4.37,6.91-6.92,10.14.1-7.66-.94-15.6-3-23.44,3.39-4.21,6.35-8.55,8.78-12.99Z"/>
    <path class="cls-2" d="M176.02,47.82c5.01,4.2,9.5,9.07,13.4,14.38-5.53,2.83-11.4,6.05-17.47,9.55-4.49-6.22-9.49-12-14.88-17,6.35-2.84,12.71-5.2,18.95-6.94Z"/>
    <path class="cls-6" d="M198.41,77.12c2.77,5.72,4.98,11.7,6.57,17.73-4.05,5.04-8.72,9.88-13.84,14.48-2.14-6.53-4.92-13.17-8.24-19.64,5.58-4.21,10.81-8.44,15.51-12.57Z"/>
    <path class="cls-2" d="M139.31,31.9c9.29-1.36,18.71-.72,27.62,1.77-3.88.4-7.74,1.05-11.58,1.97-5.05-1.89-10.4-3.17-16.04-3.74Z"/>
    <path class="cls-2" d="M214.91,108.16c-1.27,8.2-4.07,16.15-8.29,23.39,0,0,0,0,0-.01.87-4.25,1.32-8.7,1.36-13.24,2.55-3.23,4.87-6.62,6.92-10.14Z"/>
    <path class="cls-3" d="M155.35,35.64c7.61,2.82,14.53,7.01,20.67,12.18-6.24,1.74-12.6,4.1-18.95,6.94-5.89-5.47-12.26-10.03-18.95-13.29,5.61-2.46,11.39-4.43,17.23-5.83Z"/>
    <path class="cls-1" d="M204.98,94.85c2.07,7.84,3.1,15.78,3,23.44-3.61,4.59-7.69,8.89-12.12,12.85-.63-6.87-2.25-14.27-4.72-21.81,5.12-4.6,9.79-9.44,13.84-14.48Z"/>
    <path class="cls-3" d="M171.95,71.75c4.1,5.68,7.79,11.73,10.95,17.94-5.45,4.11-11.24,8.22-17.2,12.21-3.77-6.46-7.84-12.94-12.06-19.18,6.17-3.85,12.32-7.54,18.3-10.98Z"/>
    <path class="cls-4" d="M207.99,118.29c-.05,4.55-.5,8.99-1.36,13.24,0,0,0,.01,0,.01-2.99,5.14-6.7,9.92-11.08,14.17.73-4.43.82-9.35.33-14.58,4.43-3.96,8.51-8.26,12.12-12.85Z"/>
    <path class="cls-1" d="M157.07,54.75c5.39,5,10.39,10.77,14.88,17-5.98,3.43-12.13,7.13-18.3,10.98-4.53-6.71-9.25-13.14-13.96-18.95,5.71-3.35,11.54-6.39,17.38-9.02Z"/>
    <path class="cls-2" d="M182.91,89.69c3.32,6.47,6.1,13.11,8.24,19.64-4.68,4.19-9.71,8.17-15,11.89-3.08-6.23-6.6-12.76-10.44-19.32,5.96-4,11.74-8.1,17.2-12.21Z"/>
    <path class="cls-1" d="M139.31,31.9c5.64.58,10.99,1.86,16.04,3.74-5.84,1.4-11.62,3.37-17.23,5.83-4.95-2.4-10.07-4.09-15.32-4.91,5.35-2.3,10.9-3.84,16.49-4.66h0s.01,0,.01,0Z"/>
    <path class="cls-2" d="M138.12,41.47c6.7,3.25,13.06,7.82,18.95,13.29-5.84,2.63-11.67,5.67-17.38,9.02-4.87-5.99-9.74-11.35-14.44-15.69,4.17-2.48,8.46-4.69,12.86-6.62Z"/>
    <path class="cls-3" d="M191.15,109.34c2.47,7.54,4.1,14.94,4.72,21.81-3.59,3.22-7.42,6.23-11.42,9-2.1-5.7-4.93-12.12-8.31-18.92,5.29-3.72,10.33-7.7,15-11.89Z"/>
    <path class="cls-1" d="M195.87,131.14c.49,5.23.4,10.15-.33,14.58-2.32,2.26-4.84,4.38-7.54,6.32-.67-3.39-1.89-7.42-3.55-11.89,4-2.77,7.83-5.78,11.42-9Z"/>
    <path class="cls-4" d="M122.8,36.56c5.25.82,10.37,2.51,15.32,4.91-4.4,1.92-8.7,4.14-12.86,6.62-3.42-3.17-6.76-5.8-9.92-7.76,2.44-1.43,4.93-2.68,7.47-3.76Z"/>
    <path class="cls-1" d="M153.65,82.73c4.22,6.24,8.28,12.72,12.06,19.18-6.01,4.03-12.19,7.96-18.37,11.71-4.17-6.15-8.33-12.53-12.29-18.9,6.11-4.07,12.37-8.1,18.61-11.99Z"/>
    <path class="cls-2" d="M139.69,63.77c4.72,5.82,9.43,12.25,13.96,18.95-6.24,3.89-12.49,7.92-18.61,11.99-4.24-6.84-8.26-13.66-11.82-20.18,5.3-3.83,10.82-7.45,16.46-10.76Z"/>
    <path class="cls-3" d="M165.71,101.91c3.84,6.56,7.36,13.09,10.44,19.32-5.21,3.66-10.65,7.07-16.2,10.17-4.11-5.53-8.37-11.53-12.61-17.78,6.19-3.74,12.36-7.67,18.37-11.71Z"/>
    <path class="cls-2" d="M175.55,121.61c3.37,6.79,6.2,13.22,8.31,18.92-3.81,2.64-7.78,5.07-11.86,7.28-3.87-4.55-8.16-10-12.65-16.03,5.55-3.1,10.99-6.5,16.2-10.17Z"/>
    <path class="cls-1" d="M125.25,48.08c4.69,4.34,9.57,9.7,14.44,15.69-5.64,3.31-11.16,6.93-16.46,10.76-3.69-6.7-6.89-13.07-9.39-18.8,3.66-2.75,7.48-5.31,11.42-7.65Z"/>
    <path class="cls-2" d="M172.59,147.42c4.08-2.21,8.05-4.64,11.86-7.28,1.66,4.48,2.88,8.5,3.55,11.89-.97.7-1.97,1.38-2.99,2.03-1.34.86-2.68,1.66-4.05,2.4-2.43-2.32-5.26-5.4-8.37-9.05Z"/>
    <path class="cls-3" d="M125.25,48.08c-3.94,2.33-7.76,4.89-11.42,7.65-1.86-4.26-3.34-8.17-4.33-11.59,1.12-.82,2.27-1.61,3.46-2.37.79-.5,1.57-.99,2.37-1.45,3.16,1.96,6.5,4.59,9.92,7.76Z"/>
    <path class="cls-2" d="M109.51,44.14c.99,3.41,2.46,7.33,4.33,11.59-4.3,3.21-8.37,6.68-12.19,10.36-.51-5.52-.3-10.87.75-15.92h0c2.2-2.16,4.57-4.16,7.1-6.02Z"/>
    <path class="cls-1" d="M172.59,147.42c3.11,3.65,5.94,6.72,8.37,9.05-3.2,1.75-6.48,3.22-9.83,4.39-4.18-1.47-8.59-3.75-13.06-6.68,4.93-1.93,9.8-4.2,14.52-6.76Z"/>
    <path class="cls-6" d="M159.95,131.39c4.48,6.03,8.77,11.48,12.65,16.03-4.72,2.56-9.58,4.82-14.52,6.76-5.54-3.65-11.19-8.31-16.68-13.71,6.2-2.61,12.44-5.66,18.55-9.07Z"/>
    <path class="cls-4" d="M113.83,55.73c2.5,5.73,5.7,12.1,9.39,18.8-5.81,4.19-11.35,8.64-16.48,13.22-2.67-7.31-4.46-14.62-5.09-21.66,3.82-3.67,7.89-7.14,12.19-10.36Z"/>
    <path class="cls-4" d="M147.34,113.61c4.24,6.25,8.5,12.25,12.61,17.78-6.11,3.41-12.34,6.46-18.55,9.07-4.78-4.7-9.42-9.96-13.75-15.6,6.42-3.46,13.05-7.25,19.69-11.25Z"/>
    <path class="cls-3" d="M123.23,74.53c3.56,6.52,7.58,13.35,11.82,20.18-6.53,4.34-12.89,8.73-18.88,12.99-3.75-6.5-6.95-13.23-9.42-19.96,5.13-4.58,10.67-9.02,16.48-13.22Z"/>
    <path class="cls-1" d="M135.05,94.71c3.96,6.37,8.12,12.75,12.29,18.9-6.64,4.01-13.27,7.8-19.69,11.25-4.17-5.42-8.05-11.2-11.48-17.16,5.99-4.27,12.36-8.65,18.88-12.99Z"/>
    <path class="cls-1" d="M102.4,50.16c-1.05,5.05-1.26,10.41-.75,15.92-4.4,4.23-8.46,8.72-12.07,13.38.27-5.88,1.33-11.8,3.31-17.68,2.68-4.18,5.86-8.08,9.51-11.62Z"/>
    <path class="cls-2" d="M158.08,154.18c4.47,2.93,8.87,5.21,13.06,6.68-5.17,1.82-10.47,2.98-15.8,3.49h-.01c-4.67-1.11-9.34-2.77-13.9-4.93,5.56-1.32,11.15-3.08,16.65-5.24Z"/>
    <path class="cls-2" d="M141.4,140.47c5.48,5.4,11.14,10.06,16.68,13.71-5.51,2.15-11.09,3.91-16.65,5.24-6.66-3.12-13.1-7.29-19.04-12.27,6.19-1.72,12.58-3.97,19.02-6.68Z"/>
    <path class="cls-6" d="M101.65,66.09c.63,7.04,2.42,14.35,5.09,21.66-5.3,4.7-10.17,9.55-14.44,14.37-2.09-7.35-3.09-14.96-2.73-22.65,3.61-4.66,7.67-9.15,12.07-13.38Z"/>
    <path class="cls-6" d="M127.65,124.87c4.33,5.64,8.97,10.9,13.75,15.6-6.43,2.71-12.83,4.96-19.02,6.68-4.7-3.9-9.06-8.3-13.01-13.1,5.75-2.66,11.91-5.76,18.28-9.18Z"/>
    <path class="cls-1" d="M106.74,87.75c2.47,6.73,5.67,13.46,9.42,19.96-5.91,4.21-11.45,8.3-16.46,12.15-3.13-5.64-5.65-11.6-7.4-17.75,4.27-4.82,9.14-9.66,14.44-14.37Z"/>
    <path class="cls-4" d="M116.16,107.71c3.43,5.96,7.31,11.74,11.48,17.16-6.36,3.42-12.52,6.52-18.28,9.18-3.63-4.41-6.89-9.17-9.67-14.18,5.01-3.85,10.55-7.95,16.46-12.15Z"/>
    <path class="cls-1" d="M141.43,159.41c4.56,2.16,9.24,3.82,13.9,4.93-8.83.84-17.73-.1-26.11-2.71,4.03-.49,8.11-1.24,12.21-2.22Z"/>
    <path class="cls-2" d="M92.89,61.78c-1.98,5.88-3.04,11.8-3.31,17.68-2.45,3.14-4.69,6.36-6.72,9.62,1.29-9.65,4.69-19.01,10.03-27.31Z"/>
    <path class="cls-3" d="M122.38,147.15c5.95,4.98,12.39,9.14,19.04,12.27-4.09.98-8.18,1.73-12.21,2.22h0c-7.75-2.39-15.09-6.21-21.59-11.35,4.71-.66,9.65-1.71,14.76-3.13Z"/>
    <path class="cls-1" d="M82.86,89.09c2.03-3.27,4.27-6.48,6.72-9.62-.36,7.69.63,15.31,2.73,22.65-3.13,3.54-5.95,7.07-8.4,10.54-1.77-7.8-2.09-15.78-1.04-23.57Z"/>
    <path class="cls-1" d="M109.37,134.04c3.94,4.8,8.31,9.21,13.01,13.1-5.11,1.42-10.05,2.47-14.76,3.13h0c-3.96-3.13-7.61-6.74-10.85-10.84,3.89-1.5,8.13-3.31,12.61-5.4Z"/>
    <path class="cls-2" d="M92.31,102.12c1.75,6.15,4.27,12.11,7.4,17.75-3.75,2.89-7.19,5.65-10.24,8.21-2.53-4.97-4.38-10.15-5.56-15.42,2.45-3.47,5.27-7,8.4-10.54Z"/>
    <path class="cls-2" d="M99.71,119.86c2.78,5.01,6.04,9.77,9.67,14.18-4.48,2.09-8.72,3.89-12.61,5.4-1.39-1.75-2.7-3.58-3.93-5.5-1.23-1.92-2.36-3.88-3.37-5.88,3.05-2.56,6.49-5.31,10.24-8.21Z"/>
    <path class="cls-6" d="M155.34,165.2c-.43,0-.81-.33-.85-.77-.04-.47.3-.88.77-.93,5.3-.5,10.55-1.66,15.59-3.44,3.3-1.16,6.57-2.62,9.7-4.33,1.3-.71,2.65-1.51,4-2.37.97-.62,1.93-1.28,2.95-2.01,2.6-1.87,5.1-3.96,7.44-6.23,4.27-4.14,7.95-8.84,10.94-13.99,4.16-7.14,6.91-14.91,8.18-23.09,1.36-8.71.98-17.44-1.13-25.95-1.22-4.9-3-9.65-5.29-14.12-.95-1.87-2.03-3.76-3.22-5.61-1.17-1.82-2.45-3.62-3.81-5.33-3.35-4.24-7.2-8.05-11.47-11.32-6.71-5.16-14.26-8.94-22.45-11.21-8.94-2.5-18.11-3.09-27.27-1.75-.46.07-.9-.25-.97-.72-.07-.46.25-.9.72-.97,9.4-1.38,18.81-.77,27.97,1.79,8.4,2.33,16.15,6.2,23.03,11.5,4.37,3.36,8.33,7.26,11.77,11.62,1.39,1.75,2.7,3.59,3.9,5.46,1.22,1.9,2.33,3.83,3.3,5.75,2.35,4.58,4.18,9.45,5.43,14.48,2.17,8.73,2.56,17.69,1.16,26.62-1.3,8.39-4.13,16.36-8.39,23.69-3.07,5.28-6.85,10.11-11.23,14.36-2.4,2.33-4.96,4.48-7.63,6.4-1.04.75-2.03,1.42-3.02,2.06-1.39.89-2.77,1.71-4.1,2.43-3.22,1.76-6.57,3.26-9.95,4.45-5.18,1.83-10.56,3.01-16,3.53-.03,0-.05,0-.08,0Z"/>
    <path class="cls-6" d="M102.4,51c-.22,0-.44-.09-.61-.26-.33-.34-.32-.88.01-1.2,2.23-2.18,4.65-4.23,7.2-6.09,1.13-.83,2.31-1.64,3.5-2.4.8-.51,1.59-1,2.4-1.47,2.45-1.44,5-2.72,7.56-3.81,5.35-2.29,10.97-3.88,16.7-4.72.46-.07.9.25.97.72.07.47-.25.9-.72.97-5.59.81-11.06,2.36-16.28,4.6-2.49,1.06-4.97,2.31-7.37,3.72-.79.45-1.56.93-2.34,1.43-1.16.75-2.31,1.53-3.41,2.34-2.48,1.81-4.84,3.81-7.01,5.93-.17.16-.38.24-.6.24Z"/>
    <path class="cls-6" d="M107.61,151.14c-.18,0-.37-.06-.53-.18-4.09-3.24-7.79-6.94-10.99-10.98-1.4-1.76-2.74-3.63-3.98-5.56-1.24-1.94-2.39-3.94-3.41-5.95-2.52-4.97-4.42-10.22-5.63-15.61-1.78-7.81-2.13-15.85-1.06-23.87,1.32-9.82,4.83-19.38,10.16-27.65,2.75-4.27,5.99-8.23,9.63-11.77.34-.33.88-.32,1.2.02.33.34.32.88-.02,1.2-3.55,3.45-6.71,7.31-9.39,11.47-5.2,8.07-8.62,17.39-9.9,26.96-1.05,7.82-.7,15.65,1.03,23.26,1.18,5.26,3.03,10.38,5.49,15.22.99,1.96,2.11,3.91,3.32,5.8,1.21,1.89,2.52,3.71,3.88,5.42,3.12,3.94,6.72,7.54,10.71,10.71.37.29.43.83.14,1.2-.17.21-.42.32-.67.32Z"/>
    <path class="cls-6" d="M129.21,162.49c-.08,0-.17-.01-.25-.04-7.98-2.47-15.34-6.34-21.87-11.5-.37-.29-.43-.83-.14-1.2.29-.37.83-.43,1.2-.14,6.36,5.03,13.53,8.8,21.31,11.21.45.14.7.62.56,1.07-.11.37-.45.6-.81.6Z"/>
    <path class="cls-6" d="M148.97,165.5c-6.77,0-13.47-1.02-20-3.05-.45-.14-.7-.62-.56-1.07.14-.45.62-.7,1.07-.56,8.38,2.61,17.05,3.5,25.78,2.68.47-.05.88.3.93.77.04.47-.3.88-.77.93-2.15.21-4.3.31-6.44.31Z"/>
    <path class="cls-6" d="M155.34,165.2s-.09,0-.14-.01c-4.76-1.13-9.5-2.8-14.14-5-6.69-3.14-13.16-7.31-19.23-12.38-4.73-3.92-9.14-8.37-13.12-13.22-3.7-4.5-6.99-9.32-9.75-14.31-3.23-5.82-5.74-11.85-7.47-17.93-2.18-7.66-3.11-15.38-2.76-22.93.28-6.09,1.41-12.12,3.35-17.91.15-.45.63-.69,1.08-.54.45.15.69.63.54,1.08-1.9,5.64-3,11.51-3.27,17.45-.34,7.36.56,14.89,2.69,22.38,1.69,5.96,4.16,11.87,7.33,17.57,2.72,4.9,5.94,9.63,9.58,14.05,3.91,4.76,8.25,9.14,12.89,12.99,5.95,4.98,12.3,9.07,18.86,12.15,4.54,2.15,9.16,3.78,13.74,4.87.45.11.73.55.64,1-.08.4-.43.68-.83.68Z"/>
    <path class="cls-6" d="M171.14,161.71c-.09,0-.19-.02-.28-.05-4.17-1.46-8.62-3.74-13.24-6.77-5.57-3.67-11.22-8.31-16.81-13.82-4.82-4.74-9.47-10.02-13.83-15.69-4.26-5.53-8.14-11.34-11.55-17.25-3.86-6.71-7.06-13.47-9.48-20.09-2.79-7.65-4.52-15.01-5.14-21.88-.53-5.74-.27-11.18.77-16.17l1.67.33h0c-1,4.84-1.25,10.11-.74,15.69.6,6.72,2.3,13.93,5.05,21.45,2.39,6.54,5.54,13.21,9.36,19.83,3.37,5.85,7.21,11.59,11.42,17.06,4.31,5.6,8.91,10.82,13.67,15.51,5.51,5.42,11.08,10,16.55,13.61,4.51,2.96,8.84,5.17,12.87,6.59.44.16.68.64.52,1.09-.12.35-.45.57-.8.57Z"/>
    <path class="cls-6" d="M180.97,157.32c-.21,0-.42-.08-.59-.24-2.4-2.29-5.24-5.36-8.43-9.11-3.87-4.54-8.13-9.95-12.68-16.07-4.21-5.67-8.46-11.67-12.63-17.81-4.26-6.27-8.4-12.64-12.31-18.93-4.42-7.13-8.41-13.93-11.85-20.23-3.79-6.88-6.96-13.23-9.42-18.87-1.92-4.39-3.39-8.32-4.37-11.69-.13-.45.13-.92.58-1.06.45-.13.92.13,1.06.58.96,3.3,2.4,7.16,4.29,11.48,2.44,5.59,5.59,11.89,9.36,18.73,3.42,6.27,7.39,13.04,11.8,20.15,3.9,6.26,8.03,12.61,12.27,18.87,4.15,6.12,8.39,12.1,12.59,17.75,4.53,6.09,8.77,11.47,12.61,15.99,3.16,3.71,5.96,6.73,8.31,8.98.34.33.35.86.03,1.2-.17.18-.39.26-.62.26Z"/>
    <path class="cls-6" d="M195.54,146.57s-.09,0-.14-.01c-.46-.08-.78-.51-.7-.98.71-4.25.81-9.09.32-14.36-.61-6.72-2.19-13.99-4.68-21.62-2.14-6.54-4.9-13.11-8.19-19.52-3.17-6.22-6.84-12.22-10.89-17.83-4.59-6.36-9.56-12.04-14.77-16.87-6.05-5.62-12.36-10.04-18.75-13.15-5.01-2.43-10.08-4.05-15.08-4.83-.46-.07-.78-.51-.71-.97.07-.46.51-.78.97-.71,5.17.81,10.4,2.48,15.56,4.99,6.54,3.18,12.99,7.7,19.16,13.43,5.29,4.91,10.34,10.67,14.99,17.12,4.1,5.68,7.81,11.76,11.02,18.05,3.33,6.48,6.12,13.13,8.29,19.76,2.53,7.75,4.14,15.15,4.76,21.99.5,5.42.39,10.4-.34,14.8-.07.42-.43.71-.84.71Z"/>
    <path class="cls-6" d="M188,152.89c-.4,0-.75-.28-.83-.69-.65-3.27-1.83-7.23-3.51-11.76-2.08-5.64-4.86-11.97-8.27-18.83-3.08-6.24-6.58-12.72-10.41-19.27-3.83-6.56-7.88-13-12.03-19.13-4.64-6.87-9.32-13.22-13.92-18.9-5.04-6.2-9.87-11.45-14.35-15.6-3.46-3.2-6.75-5.78-9.79-7.66-.4-.25-.52-.77-.28-1.17.25-.4.77-.52,1.17-.28,3.13,1.94,6.52,4.59,10.05,7.86,4.54,4.21,9.43,9.51,14.52,15.78,4.63,5.71,9.34,12.11,14.01,19.01,4.17,6.17,8.24,12.64,12.09,19.23,3.85,6.58,7.37,13.1,10.47,19.37,3.43,6.91,6.24,13.31,8.34,19,1.71,4.62,2.92,8.66,3.59,12.02.09.46-.21.91-.67,1-.06.01-.11.02-.17.02Z"/>
    <path class="cls-6" d="M206.62,132.4c-.28,0-.55-.13-.71-.38-.14-.21-.17-.45-.12-.67.85-4.16,1.3-8.56,1.34-13.06.1-7.54-.9-15.35-2.97-23.21-1.59-6.01-3.78-11.93-6.51-17.58-2.56-5.27-5.55-10.24-8.91-14.79-3.95-5.37-8.41-10.16-13.27-14.24-6.27-5.29-13.14-9.33-20.42-12.03-5.09-1.9-10.41-3.14-15.83-3.69-.01,0-.02,0-.04,0-.24-.03-.46-.16-.6-.37-.26-.39-.16-.92.23-1.18h0c.18-.12.4-.17.61-.14,5.55.57,11,1.84,16.21,3.79,7.46,2.77,14.5,6.91,20.92,12.33,4.95,4.16,9.51,9.05,13.54,14.53,3.42,4.63,6.47,9.69,9.07,15.06,2.78,5.75,5.01,11.77,6.63,17.89,2.11,8.01,3.13,15.97,3.03,23.67-.05,4.62-.51,9.13-1.38,13.4h0c-.04.22-.17.42-.36.55-.15.1-.31.14-.47.14Z"/>
    <path class="cls-6" d="M82.86,89.94c-.15,0-.31-.04-.45-.13-.4-.25-.52-.77-.27-1.17,2.02-3.26,4.3-6.52,6.77-9.7,3.6-4.65,7.69-9.18,12.15-13.47,3.88-3.73,8.01-7.24,12.27-10.42,3.71-2.79,7.58-5.38,11.49-7.7,4.23-2.51,8.59-4.76,12.96-6.66,5.72-2.51,11.56-4.48,17.38-5.88,3.86-.92,7.79-1.59,11.69-1.99.47-.04.89.29.93.76.05.47-.29.89-.76.93-3.82.39-7.68,1.05-11.47,1.95-5.72,1.37-11.47,3.31-17.09,5.78-4.3,1.88-8.6,4.09-12.77,6.57-3.86,2.28-7.67,4.84-11.34,7.59-4.2,3.14-8.27,6.6-12.11,10.29-4.4,4.23-8.43,8.7-11.99,13.29-2.44,3.13-4.68,6.35-6.67,9.55-.16.26-.44.4-.72.4Z"/>
    <path class="cls-6" d="M83.9,113.51c-.17,0-.34-.05-.49-.16-.38-.27-.48-.8-.2-1.19,2.43-3.44,5.28-7.01,8.46-10.61,4.29-4.84,9.17-9.7,14.51-14.44,5.16-4.61,10.73-9.07,16.55-13.27,5.44-3.93,11.01-7.56,16.53-10.8,5.81-3.41,11.68-6.46,17.46-9.06,6.57-2.94,12.99-5.29,19.07-6.98,4.72-1.32,9.36-2.27,13.77-2.82.47-.06.89.27.95.74.06.47-.27.89-.74.95-4.33.54-8.88,1.47-13.53,2.77-6,1.67-12.34,3.99-18.83,6.89-5.72,2.58-11.54,5.6-17.3,8.98-5.48,3.21-10.99,6.82-16.4,10.71-5.77,4.16-11.29,8.59-16.41,13.16-5.29,4.7-10.12,9.51-14.37,14.3-3.14,3.55-5.95,7.08-8.34,10.46-.17.24-.43.36-.7.36Z"/>
    <path class="cls-6" d="M89.47,128.92c-.24,0-.48-.1-.65-.3-.3-.36-.25-.9.11-1.2,3.05-2.55,6.5-5.32,10.27-8.23,5.04-3.88,10.58-7.98,16.48-12.17,6.08-4.33,12.44-8.71,18.9-13.01,6.21-4.13,12.47-8.17,18.63-12,6.36-3.96,12.52-7.66,18.33-10.99,6.21-3.58,12.1-6.8,17.5-9.57,4.28-2.2,8.29-4.12,11.91-5.73.43-.19.93,0,1.12.43.19.43,0,.93-.43,1.12-3.59,1.59-7.57,3.5-11.82,5.69-5.38,2.76-11.25,5.96-17.43,9.53-5.79,3.32-11.94,7.01-18.28,10.96-6.14,3.83-12.39,7.85-18.58,11.97-6.45,4.29-12.79,8.66-18.86,12.98-5.88,4.19-11.41,8.27-16.43,12.14-3.75,2.89-7.18,5.64-10.21,8.18-.16.13-.35.2-.55.2Z"/>
    <path class="cls-6" d="M107.62,151.13c-.28,0-.56-.14-.72-.4-.25-.4-.13-.92.27-1.17.1-.06.22-.11.34-.13,4.64-.65,9.57-1.69,14.65-3.11,6.13-1.71,12.49-3.94,18.92-6.65,6.19-2.6,12.4-5.64,18.46-9.03,5.56-3.1,10.99-6.51,16.13-10.12,5.34-3.76,10.36-7.74,14.92-11.83,5.23-4.7,9.85-9.54,13.74-14.38,3.43-4.25,6.35-8.58,8.7-12.86.23-.41.74-.57,1.16-.34.41.23.56.74.34,1.16-2.39,4.37-5.37,8.78-8.86,13.11-3.94,4.91-8.63,9.82-13.93,14.58-4.61,4.13-9.68,8.15-15.08,11.96-5.19,3.65-10.66,7.08-16.28,10.21-6.12,3.42-12.39,6.48-18.63,9.11-6.49,2.73-12.92,4.99-19.12,6.72-5.14,1.43-10.13,2.49-14.84,3.15-.05,0-.1.01-.15.01Z"/>
    <path class="cls-6" d="M96.76,140.29c-.34,0-.66-.21-.79-.55-.17-.44.05-.93.49-1.1,3.95-1.52,8.17-3.33,12.56-5.38,5.62-2.6,11.76-5.68,18.23-9.16,6.45-3.48,13.07-7.25,19.65-11.23,6.21-3.76,12.38-7.69,18.34-11.68,5.99-4.02,11.76-8.12,17.16-12.19,5.67-4.28,10.87-8.49,15.46-12.53,3.75-3.31,7.09-6.51,9.93-9.5.32-.34.86-.36,1.2-.03.34.32.35.86.03,1.2-2.87,3.03-6.25,6.26-10.04,9.61-4.62,4.07-9.86,8.31-15.56,12.61-5.42,4.09-11.22,8.21-17.24,12.24-5.98,4.01-12.17,7.96-18.41,11.73-6.61,3.99-13.24,7.79-19.72,11.28-6.51,3.5-12.67,6.59-18.32,9.2-4.42,2.06-8.68,3.88-12.66,5.42-.1.04-.2.06-.31.06Z"/>
    <path class="cls-6" d="M129.22,162.49c-.28,0-.55-.13-.71-.38-.26-.39-.16-.92.23-1.18.11-.07.25-.12.38-.14,3.94-.48,8.02-1.22,12.11-2.2,5.49-1.3,11.06-3.05,16.54-5.2,4.9-1.92,9.75-4.18,14.42-6.71,4.07-2.2,8.03-4.63,11.78-7.23,4.03-2.8,7.85-5.8,11.33-8.94,4.48-4,8.52-8.29,12.02-12.74,2.56-3.24,4.86-6.62,6.85-10.04.24-.41.76-.54,1.16-.31.41.24.54.76.31,1.16-2.03,3.49-4.38,6.93-6.99,10.23-3.56,4.53-7.67,8.89-12.22,12.96-3.54,3.18-7.41,6.23-11.5,9.07-3.8,2.63-7.82,5.1-11.94,7.33-4.73,2.57-9.64,4.85-14.61,6.8-5.55,2.17-11.19,3.95-16.76,5.27-4.15.99-8.28,1.74-12.27,2.23-.05,0-.09.01-.14.01Z"/>
    <g>
      <path class="cls-5" d="M203.38,60.03c1.34,1.87,2.59,3.82,3.73,5.86,12.01-2.22,17.53-1.22,18.91,2.07,1.39,3.33-1.73,8.49-11.98,15.59-13.43,9.3-35.09,20.72-60.3,31.25-23.26,9.72-44.94,16.76-60.76,20.16-14.4,3.1-21.83,2.21-23.36-1.45-1.52-3.64,2.96-9.33,15.05-17.3-.61-2.22-1.09-4.46-1.45-6.7-22.75,14.25-35.88,27.41-32.8,34.77,3.17,7.59,22.85,7.25,50.26.5,16.9-4.16,36.74-10.75,57.47-19.41,22.35-9.34,42.27-19.63,57.61-29.38,21.98-13.94,34.58-26.75,31.56-33.98-2.93-7.01-19.86-7.26-43.95-1.98Z"/>
      <path class="cls-6" d="M66.72,150.76c-9.45,0-15.37-2.06-17.08-6.16-3.17-7.59,8.91-20.65,33.14-35.82.24-.15.54-.17.8-.05.26.12.44.36.49.64.36,2.22.84,4.44,1.43,6.61.1.36-.05.73-.35.94-14.69,9.68-15.54,14.35-14.73,16.26.83,1.98,4.83,4.73,22.4.95,16.3-3.5,38.4-10.83,60.61-20.12,24.27-10.14,46.19-21.5,60.14-31.16,11.98-8.3,12.46-12.68,11.68-14.56-1.26-3.01-7.3-3.54-17.97-1.56-.36.06-.72-.1-.9-.42-1.1-1.96-2.34-3.91-3.68-5.78-.17-.23-.21-.53-.1-.8.1-.27.33-.46.61-.53,15.01-3.29,40.81-7.35,44.92,2.48,3.11,7.43-8.52,20.2-31.89,35.03-16.02,10.18-35.99,20.36-57.74,29.45-20.1,8.4-40.01,15.12-57.6,19.45-13.98,3.44-25.55,5.16-34.17,5.16ZM82.61,110.9c-22.08,13.99-34.08,26.6-31.39,33.04,2.84,6.79,21.72,6.79,49.27,0,17.5-4.31,37.33-11.01,57.35-19.37,21.66-9.05,41.54-19.19,57.48-29.31,22.27-14.13,33.94-26.44,31.23-32.93-2.57-6.15-18.13-6.78-41.73-1.74.98,1.42,1.9,2.88,2.74,4.35,11.5-2.06,17.63-1.2,19.26,2.69,1.74,4.17-2.39,9.76-12.28,16.62-14.04,9.73-36.07,21.15-60.45,31.33-22.31,9.32-44.51,16.69-60.91,20.21-14.31,3.08-22.5,2.42-24.33-1.96-1.78-4.27,3.08-10.16,14.85-18-.43-1.62-.79-3.27-1.09-4.93Z"/>
    </g>
  </g>
  <g>
    <path class="cls-1" d="M89.4,34.68c.03,9.35,5.71,19.27,14.48,20.41-8.76,1.2-14.38,11.15-14.35,20.5-.03-9.35-5.71-19.27-14.48-20.41,8.76-1.2,14.38-11.15,14.35-20.5Z"/>
    <path class="cls-6" d="M89.53,76.44c-.47,0-.85-.38-.85-.85-.03-8.74-5.17-18.45-13.74-19.57-.42-.06-.74-.42-.74-.84,0-.43.31-.79.74-.85,8.56-1.17,13.64-10.91,13.61-19.65h0c0-.47.38-.85.85-.85h0c.47,0,.85.38.85.85.03,8.55,5.29,18.47,13.74,19.57.42.06.74.42.74.84,0,.43-.31.79-.74.85-8.44,1.15-13.64,11.1-13.61,19.65h0c0,.47-.38.85-.85.85h0ZM78.43,55.17c5.58,2.17,9.45,7.78,11.08,13.93,1.6-6.16,5.43-11.79,11-14-5.58-2.17-9.45-7.78-11.08-13.93-1.6,6.16-5.43,11.79-11,14Z"/>
  </g>
  <g>
    <path class="cls-1" d="M217.3,82.07c.02,5.05,3.08,10.4,7.82,11.02-4.73.65-7.77,6.02-7.75,11.07-.02-5.05-3.08-10.4-7.82-11.02,4.73-.65,7.77-6.02,7.75-11.07Z"/>
    <path class="cls-6" d="M217.37,105.11c-.52,0-.95-.42-.95-.95-.01-4.41-2.69-9.52-6.99-10.08-.47-.06-.82-.46-.83-.94,0-.48.35-.88.82-.94,4.3-.59,6.94-5.71,6.93-10.13h0c0-.53.42-.95.95-.95h0c.52,0,.95.42.95.95.01,4.41,2.69,9.52,6.99,10.08.47.06.82.46.83.94,0,.48-.35.88-.82.94-4.3.59-6.94,5.71-6.93,10.13h0c0,.53-.42.95-.95.95h0ZM212.52,93.13c2.22,1.22,3.88,3.43,4.84,5.94.95-2.52,2.59-4.73,4.8-5.97-2.22-1.22-3.88-3.42-4.84-5.94-.95,2.52-2.59,4.73-4.8,5.97Z"/>
  </g>
</svg>