<?xml version="1.0" encoding="UTF-8"?>
<svg id="Layer_1" data-name="Layer 1" xmlns="http://www.w3.org/2000/svg" viewBox="0 0 252.77 114.89">
  <defs>
    <style>
      .cls-1 {
        fill: #fff;
      }

      .cls-2 {
        fill: #6764b0;
        stroke: #fff;
        stroke-miterlimit: 10;
        stroke-width: 2px;
      }

      .cls-3 {
        fill: #fab72d;
      }

      .cls-4 {
        fill: #0e2244;
      }
    </style>
  </defs>
  <path class="cls-2" d="M127.26,10.9c-32.12-2.78-64.8,7.4-74.97,26.44-13.28,24.86,15.06,55.08,67.51,59.62,52.45,4.54,85.57-20.35,76.76-47.13-6.75-20.5-37.19-36.15-69.31-38.93ZM124.21,46.13c-2.51-.22-4.41-1.54-4.25-2.94.16-1.37,2.25-2.3,4.68-2.09,2.43.21,4.34,1.48,4.26,2.86-.08,1.4-2.19,2.38-4.69,2.16Z"/>
  <path class="cls-3" d="M127.21,24.37c-19.89-1.72-38.79,5.13-42.68,16.69-4.52,13.45,12.45,27.91,38.62,30.18,26.17,2.27,45.37-9.07,43.23-23.09-1.84-12.06-19.28-22.06-39.17-23.78ZM125.23,47.15c-2.51-.22-4.41-1.54-4.25-2.94.16-1.37,2.25-2.3,4.68-2.09,2.43.21,4.34,1.48,4.26,2.86-.08,1.4-2.19,2.38-4.69,2.16Z"/>
  <path class="cls-1" d="M65.54,64.57c-.27,0-.53-.12-.69-.35-5.91-8.25-7.04-17.28-3.16-25.43,3.37-7.08,10.25-13.14,19.91-17.53.43-.19.93,0,1.13.42.19.43,0,.93-.42,1.13-9.29,4.22-15.88,10-19.07,16.71-3.65,7.68-2.61,15.87,3,23.7.27.38.19.91-.2,1.19-.15.11-.32.16-.5.16ZM125.87,47.7c-.22,0-.45,0-.68-.03h0c-1.67-.14-3.13-.8-3.91-1.74-.44-.54-.64-1.15-.57-1.76.19-1.7,2.34-2.81,5.01-2.58,2.67.23,4.6,1.7,4.49,3.41-.04.61-.34,1.18-.87,1.63-.8.69-2.07,1.07-3.47,1.07ZM125.03,43.26c-1.55,0-2.58.61-2.63,1.1-.02.15.05.31.2.49.36.44,1.3,1,2.74,1.13h0c1.45.12,2.46-.27,2.89-.64.18-.15.27-.3.28-.45.03-.55-1.09-1.44-2.94-1.6-.18-.02-.36-.02-.54-.02Z"/>
  <path class="cls-1" d="M68.44,50.97c-.43,0-.79-.32-.84-.75-.44-3.66.1-7.28,1.58-10.75,2.08-4.85,5.85-8.48,7.38-9.82.35-.31.89-.27,1.2.08.31.35.27.89-.08,1.2-3,2.62-5.59,6.06-6.94,9.21-1.37,3.2-1.86,6.52-1.46,9.88.06.47-.28.89-.75.95-.03,0-.07,0-.1,0Z"/>
  <path class="cls-1" d="M181.19,74.58c-.22,0-.44-.08-.61-.26-.33-.34-.32-.88.01-1.2,6.88-6.75,9.31-14.64,7.03-22.84-1.99-7.16-7.5-13.99-15.92-19.74-.39-.27-.49-.79-.22-1.18.26-.39.8-.49,1.18-.22,8.76,5.98,14.5,13.13,16.6,20.69,2.42,8.7-.24,17.4-7.48,24.51-.17.16-.38.24-.6.24ZM125.87,47.7c-.22,0-.45,0-.68-.03-1.67-.15-3.13-.8-3.91-1.74-.44-.54-.64-1.15-.57-1.76h0c.19-1.7,2.34-2.81,5.01-2.58,2.67.23,4.6,1.7,4.49,3.41-.04.61-.34,1.18-.87,1.64-.8.69-2.06,1.07-3.47,1.07ZM122.39,44.36c-.02.15.05.31.2.49.36.44,1.3,1,2.74,1.13,1.45.13,2.46-.26,2.89-.64.18-.15.27-.3.28-.45.03-.55-1.09-1.44-2.94-1.6-1.84-.16-3.11.53-3.17,1.07h0Z"/>
  <path class="cls-1" d="M180.66,60.68c-.08,0-.16-.01-.25-.04-.45-.14-.71-.61-.57-1.06.97-3.24,1.06-6.6.26-9.98-.78-3.32-2.75-7.16-5.25-10.26-.3-.37-.24-.9.13-1.2.37-.3.9-.24,1.2.13,1.28,1.58,4.37,5.81,5.58,10.94.87,3.68.77,7.33-.29,10.86-.11.37-.45.61-.82.61Z"/>
  <path class="cls-4" d="M125.93,48.04c-.25,0-.51-.01-.77-.03h0c-1.88-.16-3.53-.89-4.4-1.95-.49-.59-.7-1.26-.63-1.93.21-1.88,2.61-3.1,5.6-2.84,2.98.26,5.14,1.88,5.03,3.76-.04.67-.37,1.29-.95,1.79-.89.77-2.31,1.2-3.9,1.2ZM125.3,46.31c1.39.12,2.73-.18,3.41-.76.23-.2.35-.4.36-.6.04-.69-1.26-1.77-3.48-1.96-2.21-.19-3.69.65-3.76,1.34-.02.2.06.42.25.66.57.69,1.83,1.22,3.23,1.34h0Z"/>
  <path class="cls-4" d="M129.7,72.38c-2.17,0-4.39-.1-6.63-.29-16.85-1.46-31.09-8.13-37.17-17.41-2.96-4.53-3.72-9.33-2.19-13.89,3.92-11.66,22.65-19.08,43.56-17.27h0c20.91,1.81,38.08,12.34,39.94,24.5.73,4.76-.84,9.36-4.54,13.31-6.57,7.02-18.85,11.05-32.97,11.05ZM120.96,24.95c-17.54,0-32.33,6.58-35.63,16.39-1.36,4.05-.67,8.34,2,12.41,5.8,8.85,19.55,15.23,35.89,16.64,16.34,1.41,30.98-2.5,38.21-10.22,3.33-3.55,4.75-7.66,4.1-11.89-1.74-11.4-18.25-21.32-38.4-23.06-2.08-.18-4.15-.27-6.17-.27Z"/>
  <path class="cls-1" d="M106.38,71.68c-20.1-4.68-1.12,6.18,1.03,8.53,2.15,2.35-18.13-.78-22.79.97-4.67,1.75,2.46,6.1,8.83,8.42,2.71.99,25.82,7.83,48.31,4.18,2.52-.41-13.98-3.48-13.21-5.57,1.15-3.14,11.34-2.34,11.7-3.8.5-2.02-13.21-4.25-13.78-6.08-.35-1.11,1.67-2.02.77-2.29-6.08-1.8-18.98-3.92-20.85-4.36Z"/>
  <path class="cls-1" d="M122.94,21.65c15.12-.11,20.59,3.73,21.87,3.25,2-.75-11.47-3.93-7.98-4.94,3.49-1.01,13.38,1.16,17.35.59,3.97-.57-17.32-8.43-37.04-7.39-19.72,1.04-8.2,1.42-3.23,2.56,4.83,1.11-3.11,3.56-4.02,3.97-2.67,1.22-6.79,2.1,13.04,1.96Z"/>
</svg>