<?xml version="1.0" encoding="UTF-8"?>
<svg id="_0" data-name="0" xmlns="http://www.w3.org/2000/svg" viewBox="0 0 93.96 135.83">
  <defs>
    <style>
      .cls-1 {
        fill: #e32f42;
      }

      .cls-2 {
        fill: #fff;
      }

      .cls-3 {
        fill: #fe8d00;
      }
    </style>
  </defs>
  <path class="cls-1" d="M63.43,69.62h-5.93l15.01-30.8-7.94-5.33H24.44l-9.64,46.23,7.94,5.33h10.98c-2.41,11.56-7.58,36.35-7.58,36.35l5.19,4.78,40.03-51.23-7.94-5.33Z"/>
  <path class="cls-2" d="M31.34,126.67c-.12,0-.25-.05-.34-.13l-5.19-4.78c-.2-.19-.22-.5-.03-.71.19-.2.5-.22.71-.03l4.79,4.41,39.37-50.38-7.37-4.94h-5.78c-.17,0-.33-.09-.42-.23-.09-.15-.1-.33-.03-.48l14.81-30.4-7.58-5.08c-.23-.15-.29-.46-.14-.69.16-.23.47-.29.69-.14l7.94,5.33c.21.14.28.41.17.63l-14.66,30.08h5.13c.1,0,.2.03.28.09l7.94,5.33c.12.08.19.2.22.34.02.14-.01.28-.1.39l-40.03,51.23c-.09.11-.21.18-.35.19-.01,0-.03,0-.04,0Z"/>
  <path class="cls-2" d="M33.73,85.55h-10.98c-.1,0-.2-.03-.28-.09l-7.94-5.33c-.23-.15-.29-.46-.14-.69.16-.23.47-.29.69-.14l7.81,5.24h10.83c.28,0,.5.22.5.5s-.22.5-.5.5Z"/>
  <path class="cls-3" d="M64.53,33.47H24.4l-9.64,46.23h20.04c-.97,4.67-8.69,41.67-8.69,41.67l37.28-51.78h-16.47l17.6-36.12Z"/>
  <path class="cls-2" d="M26.11,121.87c-.07,0-.14-.01-.2-.04-.22-.1-.34-.33-.29-.56l8.56-41.07H14.76c-.15,0-.29-.07-.39-.18-.1-.12-.13-.27-.1-.42l9.64-46.23c.05-.23.25-.4.49-.4h40.13c.17,0,.33.09.42.23.09.15.1.33.03.48l-17.25,35.4h15.67c.19,0,.36.1.45.27.08.17.07.37-.04.52l-37.28,51.78c-.1.13-.25.21-.41.21ZM15.38,79.2h19.42c.15,0,.29.07.39.18.1.12.13.27.1.42l-8.21,39.37,35.34-49.07h-15.49c-.17,0-.33-.09-.42-.23-.09-.15-.1-.33-.03-.48l17.25-35.4H24.81l-9.43,45.23Z"/>
</svg>