<?xml version="1.0" encoding="UTF-8"?>
<svg id="_0" data-name="0" xmlns="http://www.w3.org/2000/svg" viewBox="0 0 102.64 113.36">
  <defs>
    <style>
      .cls-1 {
        fill: #fff;
      }

      .cls-2 {
        fill: #fd029d;
      }

      .cls-3 {
        fill: #0a0615;
      }

      .cls-4 {
        fill: #e885ce;
      }
    </style>
  </defs>
  <g>
    <path class="cls-1" d="M13.33,60.64c0-5.08,3.73-9.3,8.59-10.07V13.39c0-5.62,4.57-10.19,10.19-10.19h27.72c5.62,0,10.19,4.57,10.19,10.19v37.18c4.86.77,8.59,4.99,8.59,10.07,0,2.24-.72,4.37-2.08,6.16l-22.45,29.5c-1.94,2.55-4.9,4.02-8.11,4.02-3.21,0-6.16-1.47-8.11-4.02l-22.44-29.49c-1.36-1.79-2.08-3.92-2.08-6.16Z"/>
    <path class="cls-4" d="M17.68,60.64c0-3.23,2.62-5.85,5.85-5.85h2.74V13.39c0-3.22,2.62-5.85,5.84-5.85h27.72c3.22,0,5.85,2.62,5.85,5.85v41.4h2.74c3.22,0,5.85,2.63,5.85,5.85,0,1.28-.41,2.5-1.2,3.53l-22.45,29.49c-1.12,1.47-2.81,2.31-4.65,2.31-1.84,0-3.54-.84-4.65-2.31l-22.44-29.49c-.78-1.03-1.2-2.25-1.2-3.53h0Z"/>
    <path class="cls-2" d="M47.17,91.04l22.45-29.49c.75-.99.05-2.41-1.2-2.41h-5.58c-.83,0-1.5-.67-1.5-1.5V13.39c0-.83-.67-1.5-1.5-1.5h-27.72c-.83,0-1.5.67-1.5,1.5v44.24c0,.83-.67,1.5-1.5,1.5h-5.58c-1.24,0-1.95,1.42-1.2,2.41l22.45,29.49c.6.79,1.79.79,2.39,0Z"/>
    <path class="cls-3" d="M45.97,100.81h0c-3.37,0-6.47-1.54-8.5-4.22l-22.44-29.49c-1.43-1.88-2.19-4.12-2.19-6.47,0-5.06,3.66-9.5,8.59-10.49V13.39c0-5.89,4.79-10.69,10.69-10.69h27.72c5.89,0,10.69,4.79,10.69,10.69v36.76c4.93.99,8.59,5.42,8.59,10.49,0,2.35-.75,4.58-2.18,6.46l-22.45,29.5c-2.04,2.68-5.14,4.21-8.5,4.21ZM32.11,3.7c-5.34,0-9.69,4.35-9.69,9.69v37.18c0,.25-.18.45-.42.49-4.66.74-8.17,4.85-8.17,9.57,0,2.13.68,4.16,1.98,5.86l22.44,29.49c1.85,2.43,4.66,3.82,7.71,3.82h0c3.05,0,5.86-1.39,7.71-3.82l22.45-29.5c1.29-1.7,1.98-3.73,1.98-5.86,0-4.72-3.51-8.84-8.17-9.57-.24-.04-.42-.25-.42-.49V13.39c0-5.34-4.35-9.69-9.69-9.69h-27.72Z"/>
    <path class="cls-3" d="M45.97,96.47h0c-2,0-3.84-.91-5.05-2.5l-22.44-29.49c-.85-1.12-1.3-2.44-1.3-3.84,0-3.5,2.85-6.35,6.35-6.35h2.24V13.39c0-3.5,2.85-6.35,6.34-6.35h27.72c3.5,0,6.35,2.85,6.35,6.35v40.9h2.24c3.5,0,6.35,2.85,6.35,6.35,0,1.39-.45,2.72-1.3,3.84l-22.45,29.49c-1.21,1.59-3.05,2.5-5.05,2.5ZM23.52,55.29c-2.95,0-5.35,2.4-5.35,5.35,0,1.17.38,2.29,1.09,3.23l22.44,29.49c1.02,1.34,2.57,2.11,4.25,2.11h0c1.68,0,3.23-.77,4.25-2.11l22.45-29.49c.71-.94,1.09-2.06,1.09-3.23,0-2.95-2.4-5.35-5.35-5.35h-2.74c-.28,0-.5-.22-.5-.5V13.39c0-2.95-2.4-5.35-5.35-5.35h-27.72c-2.95,0-5.34,2.4-5.34,5.35v41.4c0,.28-.22.5-.5.5h-2.74Z"/>
    <path class="cls-3" d="M45.97,92.13c-.63,0-1.21-.29-1.59-.79l-22.45-29.49c-.46-.61-.54-1.42-.2-2.1.34-.69,1.03-1.11,1.79-1.11h5.58c.55,0,1-.45,1-1V13.39c0-1.1.9-2,2-2h27.72c1.1,0,2,.9,2,2v44.24c0,.55.45,1,1,1h5.58c.77,0,1.45.43,1.79,1.11.34.69.26,1.49-.2,2.1l-22.45,29.49h0c-.38.5-.96.79-1.59.79ZM23.52,59.63c-.39,0-.73.21-.9.56-.17.35-.14.74.1,1.05l22.45,29.49c.38.5,1.21.5,1.6,0l22.45-29.49c.24-.31.27-.71.1-1.05-.17-.35-.51-.56-.9-.56h-5.58c-1.1,0-2-.9-2-2V13.39c0-.55-.45-1-1-1h-27.72c-.55,0-1,.45-1,1v44.24c0,1.1-.9,2-2,2h-5.58ZM47.17,91.04h0,0Z"/>
  </g>
  <g>
    <g>
      <ellipse class="cls-1" cx="38.92" cy="35.03" rx="10.22" ry="21.31"/>
      <path d="M38.92,13.72c-.13,0-.25.03-.38.04v42.54c.13,0,.25.04.38.04,5.64,0,10.22-9.54,10.22-21.31s-4.58-21.31-10.22-21.31Z"/>
      <path class="cls-3" d="M38.92,56.84c-6.01,0-10.72-9.58-10.72-21.81s4.71-21.81,10.72-21.81,10.72,9.58,10.72,21.81-4.71,21.81-10.72,21.81ZM38.92,14.22c-5.36,0-9.72,9.34-9.72,20.81s4.36,20.81,9.72,20.81,9.72-9.34,9.72-20.81-4.36-20.81-9.72-20.81Z"/>
    </g>
    <polygon class="cls-1" points="38.92 21.16 41.44 24.85 45.12 27.36 41.44 29.87 38.92 33.56 36.41 29.87 32.72 27.36 36.41 24.85 38.92 21.16"/>
    <path class="cls-3" d="M38.92,34.06h0c-.16,0-.32-.08-.41-.22l-2.46-3.61-3.61-2.46c-.14-.09-.22-.25-.22-.41s.08-.32.22-.41l3.61-2.46,2.46-3.61c.19-.27.64-.27.83,0l2.46,3.61,3.61,2.46c.14.09.22.25.22.41s-.08.32-.22.41l-3.61,2.46-2.46,3.61c-.09.14-.25.22-.41.22ZM33.61,27.36l3.08,2.1c.05.04.1.08.13.13l2.1,3.08,2.1-3.08c.04-.05.08-.1.13-.13l3.08-2.1-3.08-2.1c-.05-.04-.1-.08-.13-.13l-2.1-3.08-2.1,3.08c-.04.05-.08.1-.13.13l-3.08,2.1Z"/>
    <polygon class="cls-1" points="43.85 32.22 45.5 34.65 47.93 36.3 45.5 37.96 43.85 40.39 42.19 37.96 39.76 36.3 42.19 34.65 43.85 32.22"/>
  </g>
  <g>
    <g>
      <ellipse class="cls-1" cx="57.07" cy="35.03" rx="10.22" ry="21.31"/>
      <path d="M57.07,13.72c-.13,0-.25.03-.38.04v42.54c.13,0,.25.04.38.04,5.64,0,10.22-9.54,10.22-21.31s-4.58-21.31-10.22-21.31Z"/>
      <path class="cls-3" d="M57.07,56.84c-6.01,0-10.72-9.58-10.72-21.81s4.71-21.81,10.72-21.81,10.72,9.58,10.72,21.81-4.71,21.81-10.72,21.81ZM57.07,14.22c-5.36,0-9.72,9.34-9.72,20.81s4.36,20.81,9.72,20.81,9.72-9.34,9.72-20.81-4.36-20.81-9.72-20.81Z"/>
    </g>
    <polygon class="cls-1" points="57.07 21.16 59.58 24.85 63.27 27.36 59.58 29.87 57.07 33.56 54.55 29.87 50.86 27.36 54.55 24.85 57.07 21.16"/>
    <path class="cls-3" d="M57.07,34.06c-.16,0-.32-.08-.41-.22l-2.46-3.61-3.61-2.46c-.14-.09-.22-.25-.22-.41s.08-.32.22-.41l3.61-2.46,2.46-3.61c.19-.27.64-.27.83,0l2.46,3.61,3.61,2.46c.14.09.22.25.22.41s-.08.32-.22.41l-3.61,2.46-2.46,3.61c-.09.14-.25.22-.41.22ZM51.75,27.36l3.08,2.1c.05.04.1.08.13.13l2.1,3.08,2.1-3.08c.04-.05.08-.1.13-.13l3.08-2.1-3.08-2.1c-.05-.04-.1-.08-.13-.13l-2.1-3.08-2.1,3.08c-.04.05-.08.1-.13.13l-3.08,2.1Z"/>
    <polygon class="cls-1" points="61.99 32.22 63.64 34.65 66.07 36.3 63.64 37.96 61.99 40.39 60.33 37.96 57.9 36.3 60.33 34.65 61.99 32.22"/>
  </g>
  <g>
    <path class="cls-3" d="M52.33,64.78c-2.18,0-4.31-1.03-6.35-3.07-.2-.2-.2-.51,0-.71.2-.2.51-.2.71,0,1.84,1.84,3.74,2.78,5.64,2.78h.01c2.01,0,4.05-1.05,6.08-3.09.19-.2.51-.2.71,0,.2.19.2.51,0,.71-2.22,2.24-4.5,3.38-6.78,3.39h-.02Z"/>
    <path class="cls-3" d="M61.53,62.86c-1.19,0-2.12-.33-2.75-.97-.61-.63-.92-1.55-.9-2.67,0-.28.25-.5.51-.49.28,0,.5.24.49.51-.01.59.08,1.41.61,1.95.43.44,1.12.67,2.03.67.28,0,.5.22.5.5s-.22.5-.5.5Z"/>
  </g>
</svg>