<?xml version="1.0" encoding="UTF-8"?>
<svg id="OBJECTS" xmlns="http://www.w3.org/2000/svg" viewBox="0 0 163.61 203.52">
  <defs>
    <style>
      .cls-1 {
        fill: #9d47c3;
      }

      .cls-1, .cls-2, .cls-3, .cls-4, .cls-5, .cls-6, .cls-7, .cls-8 {
        stroke: #fff;
        stroke-miterlimit: 10;
        stroke-width: 2px;
      }

      .cls-2 {
        fill: #ffe86b;
      }

      .cls-3 {
        fill: #ed4381;
      }

      .cls-4 {
        fill: #41aeff;
      }

      .cls-5 {
        fill: #49ceff;
      }

      .cls-6 {
        fill: #ea72c4;
      }

      .cls-7 {
        fill: #ffd036;
      }

      .cls-8 {
        fill: #fff;
      }
    </style>
  </defs>
  <g>
    <g>
      <g>
        <polygon class="cls-1" points="58.62 58.67 75.2 107.08 78.1 115.53 64.56 120.92 60.93 112.76 40.18 66.02 58.62 58.67"/>
        <path class="cls-7" d="M64.56,120.91s4.48,9.32,10.86,6.78,2.68-12.17,2.68-12.17l-13.53,5.39Z"/>
      </g>
      <rect class="cls-3" x="36.42" y="58.05" width="25.01" height="6.59" rx="2.82" ry="2.82" transform="translate(-19.22 22.45) rotate(-21.71)"/>
      <path class="cls-5" d="M58.87,35.65c.65,1.64,1.05,3.31,1.23,4.97.86,8.13-3.73,16.14-11.66,19.3-9.59,3.82-20.46-.86-24.28-10.45-2.38-5.97-1.46-12.43,1.89-17.38,2.03-3,4.94-5.44,8.57-6.89,9.58-3.81,20.45.85,24.27,10.44Z"/>
      <path class="cls-4" d="M60.1,40.62c.86,8.13-3.73,16.14-11.66,19.3-9.59,3.82-20.46-.86-24.28-10.45-2.38-5.97-1.46-12.43,1.89-17.38,4.58,7.3,14.4,15.74,34.06,8.53Z"/>
      <rect class="cls-6" x="32.51" y="53.71" width="29.36" height="6.59" rx="2.82" ry="2.82" transform="translate(-17.74 21.5) rotate(-21.71)"/>
      <polygon class="cls-4" points="75.2 107.08 78.1 115.53 64.56 120.92 60.93 112.76 75.2 107.08"/>
    </g>
    <path class="cls-7" d="M130.48,135.11c-2.72-8.61-6.75-13.83-11.97-15.52-9.23-2.98-20.33,5.3-27.68,10.78-.67.5-1.3.97-1.89,1.4-2.86,2.1-5.58,2.74-8.09,1.9-5.21-1.75-7.52-9.25-7.62-9.56l.96-.29c.02.07,2.26,7.33,6.98,8.91,2.18.72,4.59.14,7.18-1.76.59-.43,1.22-.9,1.88-1.4,7.51-5.6,18.86-14.06,28.58-10.93,5.54,1.79,9.79,7.23,12.62,16.17l-.95.3Z"/>
  </g>
  <circle class="cls-8" cx="44.57" cy="31.75" r="4.14"/>
  <circle class="cls-7" cx="56.66" cy="70.58" r="3.19"/>
  <path class="cls-2" d="M63.57,79.81c0,1.76-1.43,3.19-3.19,3.19s-3.19-1.43-3.19-3.19,1.43-3.19,3.19-3.19,3.19,1.43,3.19,3.19Z"/>
  <path class="cls-7" d="M133.39,134.96c0-1.34-1.09-2.43-2.43-2.43s-2.43,1.09-2.43,2.43,1.09,2.43,2.43,2.43,2.43-1.09,2.43-2.43Z"/>
</svg>