<?xml version="1.0" encoding="UTF-8"?>
<svg id="_0" data-name="0" xmlns="http://www.w3.org/2000/svg" viewBox="0 0 55.15 71.49">
  <defs>
    <style>
      .cls-1 {
        fill: #fff;
      }

      .cls-2 {
        fill: #38a8bc;
      }
    </style>
  </defs>
  <path class="cls-2" d="M33.77,23.28s.5,13.46.66,19.22c-1.55-.98-3.74-1.6-6.17-1.6-4.69,0-8.49,2.27-8.49,5.08s3.8,5.08,8.49,5.08,8.49-2.27,8.49-5.08v-13.59l11.32,1.32-.33-9.59-13.97-.84Z"/>
  <path class="cls-1" d="M28.26,51.56c4.98,0,9.03-2.5,9.03-5.58v-13.03l10.72,1.25c.15.02.31-.03.43-.13.12-.1.18-.24.18-.38l-.33-9.59c0-.26-.23-.47-.5-.48l-13.97-.84c-.15-.01-.3.04-.41.14-.11.1-.17.23-.16.38,0,.13.46,12.22.63,18.31-1.59-.78-3.54-1.2-5.61-1.2-4.98,0-9.03,2.5-9.03,5.58s4.05,5.58,9.03,5.58ZM36.75,31.89c-.13,0-.26.04-.36.12-.12.09-.18.23-.18.38v13.59c0,2.52-3.57,4.58-7.95,4.58s-7.95-2.05-7.95-4.58,3.57-4.58,7.95-4.58c2.21,0,4.35.55,5.87,1.51.17.11.38.12.56.03.18-.09.29-.26.28-.45-.14-5.03-.54-16.08-.64-18.67l12.89.78.3,8.55-10.7-1.25s-.05,0-.07,0Z"/>
</svg>